<?xml version="1.0" encoding="UTF-8"?>
<svg version="1.1" xmlns="http://www.w3.org/2000/svg" width="512" height="160">
<path d="M0 0 C168.96 0 337.92 0 512 0 C512 52.8 512 105.6 512 160 C343.04 160 174.08 160 0 160 C0 107.2 0 54.4 0 0 Z " fill="#F2F7F9" transform="translate(0,0)"/>
<path d="M0 0 C17.19776614 -0.12032643 17.19776614 -0.12032643 24.60351562 -0.14648438 C29.63071348 -0.16432602 34.65774536 -0.18529062 39.68481445 -0.22631836 C43.74378576 -0.25923278 47.80257875 -0.27691961 51.86167336 -0.28463173 C53.40001032 -0.29011832 54.93833899 -0.30082978 56.47659874 -0.31719017 C75.60134466 -0.51225852 91.72352468 3.70089254 106.46484375 16.48828125 C119.91212911 29.81124656 127.27920537 47.60907152 127.5 66.5 C127.24653478 84.68093587 120.36238943 101.62548512 108 115 C107.43152344 115.62261719 106.86304688 116.24523437 106.27734375 116.88671875 C102.16393442 120.90972348 97.43821556 123.60816432 92.375 126.25 C91.76076172 126.5795166 91.14652344 126.9090332 90.51367188 127.24853516 C78.78025323 133.05877666 66.11936551 133.43162958 53.3203125 133.29296875 C51.77090878 133.28735574 50.22149963 133.28309374 48.67208862 133.28010559 C44.64435457 133.26879067 40.61695837 133.23944317 36.58935547 133.20599365 C32.45935635 133.17500025 28.32930128 133.16153849 24.19921875 133.14648438 C16.1326595 133.11455681 8.06637207 133.06352797 0 133 C-0.10201175 126.2048841 -0.1717207 119.40996808 -0.21972656 112.61425781 C-0.23975417 110.30591451 -0.26698439 107.99762138 -0.30175781 105.68945312 C-0.35066594 102.35794643 -0.37305811 99.02711462 -0.390625 95.6953125 C-0.41127014 94.67511017 -0.43191528 93.65490784 -0.45318604 92.60379028 C-0.45637989 82.24112092 2.91082106 73.61020991 10 66 C18.55909713 57.81875169 27.07158957 55.63314546 38.765625 55.73632812 C39.87421875 55.76146484 40.9828125 55.78660156 42.125 55.8125 C43.27226563 55.82603516 44.41953125 55.83957031 45.6015625 55.85351562 C48.40124874 55.8885117 51.20068955 55.94230429 54 56 C54 49.73 54 43.46 54 37 C55.98 36.505 55.98 36.505 58 36 C59.61230469 36.96875 59.61230469 36.96875 61.171875 38.5 C61.74969727 39.05397461 62.32751953 39.60794922 62.92285156 40.17871094 C63.52581055 40.77973633 64.12876953 41.38076172 64.75 42 C66.00968426 43.21430191 67.27009521 44.42785044 68.53125 45.640625 C69.13324219 46.22650391 69.73523438 46.81238281 70.35546875 47.41601562 C72.26780611 49.25794627 74.23770366 51.01810561 76.25 52.75 C80.8979268 56.76136292 85.44503812 60.88373322 90 65 C89.42614041 68.25099558 88.56073179 69.78434271 86.12109375 71.98828125 C85.53352295 72.52622314 84.94595215 73.06416504 84.34057617 73.6184082 C83.71256104 74.1774585 83.0845459 74.73650879 82.4375 75.3125 C81.79852783 75.89281982 81.15955566 76.47313965 80.5012207 77.07104492 C78.67600512 78.72386488 76.84085054 80.3646299 75 82 C74.21109375 82.70125 73.4221875 83.4025 72.609375 84.125 C71.37054369 85.21275432 70.12490247 86.2928252 68.87109375 87.36328125 C67.43668114 88.61801796 66.03958348 89.91552226 64.66015625 91.23046875 C63.86480469 91.97941406 63.06945312 92.72835937 62.25 93.5 C61.53328125 94.1909375 60.8165625 94.881875 60.078125 95.59375 C59.04945312 96.28984375 59.04945312 96.28984375 58 97 C56.68 96.67 55.36 96.34 54 96 C54 89.73 54 83.46 54 77 C49.95613701 77.03304791 45.9177536 77.10029458 41.875 77.1875 C40.73289063 77.19330078 39.59078125 77.19910156 38.4140625 77.20507812 C31.42257196 77.25075314 31.42257196 77.25075314 25.3203125 80.23828125 C21.64139207 84.61706365 20.75991474 88.30277106 20.5859375 93.95703125 C20.54726563 95.06884766 20.50859375 96.18066406 20.46875 97.32617188 C20.4378125 98.47666016 20.406875 99.62714844 20.375 100.8125 C20.33632813 101.98232422 20.29765625 103.15214844 20.2578125 104.35742188 C20.1637487 107.23812564 20.07810123 110.11882654 20 113 C26.59834738 112.95798081 33.19587498 112.88531998 39.79370117 112.79248047 C42.03288354 112.76445243 44.27216151 112.74314867 46.51147461 112.72900391 C64.89800982 112.60596218 79.58605026 111.66776532 93.75 98.75 C102.55633695 89.45442211 105.51738714 76.52139007 105.42163086 64.05981445 C104.95593331 51.11711138 100.02223349 40.48628661 90.625 31.6875 C80.46120601 23.14991305 68.71671315 20.57428022 55.64453125 20.48828125 C54.10305672 20.46135445 54.10305672 20.46135445 52.53044128 20.43388367 C49.29116763 20.38028012 46.05203697 20.34604657 42.8125 20.3125 C40.5982876 20.27928276 38.38409395 20.24478912 36.16992188 20.20898438 C30.77993303 20.12221181 25.39056502 20.0617159 20 20 C20 27.59 20 35.18 20 43 C12.6875 46.8125 12.6875 46.8125 10.3972168 47.99536133 C9.49483276 48.47138794 9.49483276 48.47138794 8.57421875 48.95703125 C7.96151123 49.27647705 7.34880371 49.59592285 6.7175293 49.92504883 C4.91431687 50.96076699 4.91431687 50.96076699 3.40161133 52.62768555 C2 54 2 54 0 54 C0 36.18 0 18.36 0 0 Z " fill="#F94403" transform="translate(31,14)"/>
<path d="M0 0 C2.46565281 2.03178257 4.67842362 4.12655557 6.8203125 6.5 C7.30113281 6.98855469 7.78195312 7.47710937 8.27734375 7.98046875 C18.5722691 18.95303476 21.39830003 34.28813123 21.0390625 48.8671875 C20.10079119 64.44919312 15.10277953 78.79117232 3.6328125 89.75 C-8.13379171 99.6941672 -22.05536734 101.40086404 -36.86767578 100.69970703 C-48.5424419 99.69126366 -59.36998123 94.19123827 -67.33203125 85.72265625 C-79.3854704 71.22285313 -81.23577874 53.66476933 -80.1796875 35.5 C-78.51780733 22.93731261 -72.64597899 10.98870545 -63.1796875 2.5 C-45.20936144 -10.95806901 -18.81610722 -13.88642599 0 0 Z " fill="#111111" transform="translate(372.1796875,34.5)"/>
<path d="M0 0 C62.26785714 0 62.26785714 0 76.12109375 12.9296875 C88.42293808 26.48473427 90.65097509 42.00079824 90.13183594 59.50732422 C89.48756312 71.6888528 85.29682231 84.39391931 76.8046875 93.4140625 C55.41638227 112.20984589 26.74834515 107 0 107 C0 71.69 0 36.38 0 0 Z " fill="#121212" transform="translate(191,27)"/>
<path d="M0 0 C0.7129422 -0.01022186 1.4258844 -0.02044373 2.16043091 -0.03097534 C4.51989352 -0.05878366 6.87818571 -0.05684801 9.23779297 -0.05224609 C10.89289781 -0.06003041 12.54799869 -0.06870188 14.20309448 -0.07821655 C17.68175134 -0.09315244 21.16000262 -0.09255891 24.63867188 -0.08203125 C29.04523173 -0.07055845 33.45007802 -0.10400571 37.85635567 -0.1507206 C41.28336927 -0.18057733 44.70999096 -0.18188596 48.13711166 -0.17570114 C49.75784519 -0.17671256 51.37860524 -0.18689855 52.99921036 -0.20732498 C69.21894757 -0.38636695 84.06698441 3.61816075 97.72998047 12.61181641 C98.90173828 13.37171875 98.90173828 13.37171875 100.09716797 14.14697266 C100.67724609 14.60974609 101.25732422 15.07251953 101.85498047 15.54931641 C101.85498047 16.20931641 101.85498047 16.86931641 101.85498047 17.54931641 C102.43505859 17.79810547 103.01513672 18.04689453 103.61279297 18.30322266 C115.09805057 24.68614457 121.32496822 40.72141959 124.76513672 52.72509766 C129.63508708 72.72587053 126.93106493 93.27602876 116.49951172 111.15869141 C110.1661664 120.36535965 102.73613814 129.08867664 92.85498047 134.54931641 C91.80310547 135.13712891 91.80310547 135.13712891 90.72998047 135.73681641 C88.85498047 136.54931641 88.85498047 136.54931641 85.85498047 136.54931641 C85.85498047 137.20931641 85.85498047 137.86931641 85.85498047 138.54931641 C83.8363365 139.2019607 81.8149432 139.84610386 79.79248047 140.48681641 C78.10445312 141.02628906 78.10445312 141.02628906 76.38232422 141.57666016 C70.36392944 143.23621752 64.54115925 143.67880538 58.31494141 143.72631836 C57.59697388 143.73288956 56.87900635 143.73946075 56.13928223 143.74623108 C53.78930531 143.76577076 51.43939127 143.77757482 49.08935547 143.78759766 C48.28310982 143.79167318 47.47686417 143.79574871 46.64618683 143.79994774 C42.38929 143.82071266 38.13242461 143.83506283 33.87548828 143.84448242 C29.47806562 143.85560661 25.08114066 143.89010162 20.68389511 143.92965412 C17.29875727 143.95573893 13.91374056 143.9641663 10.52851105 143.9677639 C8.90654335 143.97264064 7.28458144 143.98428551 5.6627121 144.0028019 C3.40054334 144.02705102 1.13969925 144.02625692 -1.12255859 144.01928711 C-3.05279877 144.02808647 -3.05279877 144.02808647 -5.02203369 144.0370636 C-8.14501953 143.54931641 -8.14501953 143.54931641 -10.06065369 141.7706604 C-11.18888899 139.45944898 -11.51969379 138.08826636 -11.51733398 135.5378418 C-11.52356277 134.75925308 -11.52979156 133.98066437 -11.53620911 133.17848206 C-11.52699936 132.34308395 -11.51778961 131.50768585 -11.50830078 130.64697266 C-11.50879929 129.77342636 -11.50929779 128.89988007 -11.5098114 127.99986267 C-11.50747182 126.14807873 -11.49775009 124.29629155 -11.48120117 122.44458008 C-11.45786399 119.65301959 -11.46060957 116.8624324 -11.46728516 114.07080078 C-11.4399669 96.68287339 -11.03710722 80.90522348 1.62841797 67.74462891 C2.73056641 66.65794922 2.73056641 66.65794922 3.85498047 65.54931641 C4.38349609 65.01048828 4.91201172 64.47166016 5.45654297 63.91650391 C11.486043 58.29121617 20.67884634 56.39979296 28.71826172 56.45166016 C30.04760742 56.45649414 30.04760742 56.45649414 31.40380859 56.46142578 C32.77182617 56.47399414 32.77182617 56.47399414 34.16748047 56.48681641 C35.09882812 56.49132812 36.03017578 56.49583984 36.98974609 56.50048828 C39.2782242 56.51222407 41.56656855 56.52864278 43.85498047 56.54931641 C43.79697266 55.52451172 43.73896484 54.49970703 43.67919922 53.44384766 C43.6322809 52.0832163 43.58678295 50.72253545 43.54248047 49.36181641 C43.50058594 48.68828125 43.45869141 48.01474609 43.41552734 47.32080078 C43.31941131 43.38004332 43.72186052 41.72095329 46.16357422 38.57275391 C48.85498047 36.54931641 48.85498047 36.54931641 52.22998047 36.36181641 C56.67987731 37.81954123 59.77540699 40.02044345 62.85498047 43.54931641 C62.85498047 44.20931641 62.85498047 44.86931641 62.85498047 45.54931641 C63.72123047 45.64212891 63.72123047 45.64212891 64.60498047 45.73681641 C67.73755618 46.8680243 68.88958897 48.92879441 70.85498047 51.54931641 C71.51498047 51.87931641 72.17498047 52.20931641 72.85498047 52.54931641 C72.85498047 53.20931641 72.85498047 53.86931641 72.85498047 54.54931641 C73.39896484 54.78779297 73.94294922 55.02626953 74.50341797 55.27197266 C77.4558363 56.87569491 79.8836008 58.85582555 82.47998047 60.98681641 C83.44162109 61.76927734 84.40326172 62.55173828 85.39404297 63.35791016 C88.52425916 66.14529314 89.74880674 67.73026191 90.29248047 71.92431641 C89.72312921 76.64179827 88.47663388 77.51895335 84.85498047 80.54931641 C83.31026673 81.92089235 81.76881285 83.29614515 80.22998047 84.67431641 C79.47458984 85.33689453 78.71919922 85.99947266 77.94091797 86.68212891 C76.67806006 87.81255228 75.43626431 88.96803257 74.23779297 90.16650391 C72.25920627 92.1450906 70.03866707 93.80236712 67.85498047 95.54931641 C66.85359062 96.54792462 65.85375573 97.54809317 64.85498047 98.54931641 C63.53130033 99.74756718 62.19742931 100.93463115 60.85498047 102.11181641 C60.17435547 102.71123047 59.49373047 103.31064453 58.79248047 103.92822266 C56.13302928 106.15336831 54.40569717 107.47901215 50.91748047 107.92431641 C47.85498047 107.54931641 47.85498047 107.54931641 45.67919922 106.04150391 C43.13506666 102.5657939 43.41548604 99.42446439 43.60498047 95.29931641 C43.62302734 94.55423828 43.64107422 93.80916016 43.65966797 93.04150391 C43.70662398 91.21021939 43.77836395 89.37959992 43.85498047 87.54931641 C40.95610928 87.58242916 38.06481425 87.64969534 35.16748047 87.73681641 C34.35085937 87.74261719 33.53423828 87.74841797 32.69287109 87.75439453 C28.62593461 87.9025825 26.32701155 88.25247212 22.82373047 90.45556641 C20.01018043 94.87685933 20.07688759 98.7235474 20.04248047 103.86181641 C20.01068767 105.58995636 19.97712653 107.31806436 19.94213867 109.04614258 C19.92568802 109.89609299 19.90923737 110.7460434 19.89228821 111.62174988 C19.87382088 112.57589531 19.87382088 112.57589531 19.85498047 113.54931641 C25.38708103 113.45516928 30.91877517 113.34894496 36.45043945 113.23193359 C38.32895706 113.19385008 40.20754247 113.15896275 42.08618164 113.12744141 C44.79972433 113.08133927 47.51280839 113.02342356 50.22607422 112.96337891 C51.05457382 112.9518277 51.88307343 112.94027649 52.73667908 112.92837524 C60.88340718 112.72607205 67.99168791 111.35293855 75.22998047 107.48681641 C78.12244851 105.95836753 80.7498736 104.58435203 83.85498047 103.54931641 C84.94315005 101.69650839 84.94315005 101.69650839 85.85498047 99.54931641 C86.65555631 98.29164611 87.4684658 97.04175597 88.29248047 95.79931641 C95.05257941 85.11078238 96.2701816 73.59570781 94.10498047 61.23681641 C91.59527251 50.40821634 85.20373925 42.45193537 75.85498047 36.54931641 C74.55593134 35.99578684 73.24373163 35.47156529 71.91748047 34.98681641 C70.90685547 34.51244141 69.89623047 34.03806641 68.85498047 33.54931641 C68.52498047 31.89931641 68.19498047 30.24931641 67.85498047 28.54931641 C51.02498047 28.21931641 34.19498047 27.88931641 16.85498047 27.54931641 C16.85498047 30.84931641 16.85498047 34.14931641 16.85498047 37.54931641 C18.33998047 38.04431641 18.33998047 38.04431641 19.85498047 38.54931641 C19.85498047 43.16931641 19.85498047 47.78931641 19.85498047 52.54931641 C17.87498047 53.13712891 17.87498047 53.13712891 15.85498047 53.73681641 C11.65882588 55.12009134 8.22620404 56.98860904 4.58154297 59.46337891 C2.85498047 60.54931641 2.85498047 60.54931641 -0.14501953 61.54931641 C-0.14501953 62.20931641 -0.14501953 62.86931641 -0.14501953 63.54931641 C-3.73259015 67.13688703 -3.73259015 67.13688703 -6.14501953 68.54931641 C-9.02001953 68.36181641 -9.02001953 68.36181641 -11.14501953 67.54931641 C-11.89782595 63.54027798 -12.2629335 59.77595668 -12.23022461 55.69921875 C-12.22303909 54.57139984 -12.21585358 53.44358093 -12.20845032 52.28158569 C-12.19396347 51.0782962 -12.17947662 49.87500671 -12.16455078 48.63525391 C-12.15042648 47.38805573 -12.13630219 46.14085754 -12.12174988 44.85586548 C-12.08870059 42.22499419 -12.05235616 39.5941625 -12.01293945 36.96337891 C-11.96339756 33.5964673 -11.93733934 30.22979442 -11.91650867 26.86260033 C-11.89124145 23.64074453 -11.83846587 20.41932412 -11.78955078 17.19775391 C-11.78518509 15.99041595 -11.7808194 14.783078 -11.77632141 13.53915405 C-11.75337509 12.41763947 -11.73042877 11.29612488 -11.70678711 10.140625 C-11.69488846 9.1550058 -11.68298981 8.1693866 -11.67073059 7.15390015 C-10.3410287 0.5660229 -6.02530292 0.04314194 0 0 Z M-5.14501953 5.54931641 C-5.14501953 23.36931641 -5.14501953 41.18931641 -5.14501953 59.54931641 C-1.20880688 57.58121008 2.47415346 55.38145333 6.22216797 53.08447266 C9.03020326 51.44714644 11.94762438 50.00299445 14.85498047 48.54931641 C14.85498047 40.95931641 14.85498047 33.36931641 14.85498047 25.54931641 C21.29316816 25.60069859 27.72907748 25.66410794 34.16650391 25.75683594 C36.35034621 25.78483392 38.53428586 25.80615222 40.71826172 25.8203125 C59.02303643 25.94603211 73.88031853 26.75733712 88.06982422 39.54541016 C93.79705885 45.35796672 96.44829062 51.83344811 98.85498047 59.54931641 C99.05607422 60.18482422 99.25716797 60.82033203 99.46435547 61.47509766 C101.80396234 73.89841017 99.79441778 87.7706049 93.04248047 98.48681641 C92.01507227 99.8677965 90.95298424 101.22377451 89.85498047 102.54931641 C89.33033203 103.18482422 88.80568359 103.82033203 88.26513672 104.47509766 C81.19937838 112.23911917 70.47182874 116.71010646 60.10923767 117.85183716 C57.19636082 117.98712903 54.29435329 118.04237136 51.37841797 118.06103516 C50.32715729 118.07898636 49.27589661 118.09693756 48.19277954 118.11543274 C44.87188597 118.16913112 41.55113273 118.20330108 38.22998047 118.23681641 C35.96303402 118.27002521 33.696106 118.30451811 31.42919922 118.34033203 C25.90458565 118.42483377 20.37995296 118.49335285 14.85498047 118.54931641 C14.93618877 114.50684775 15.04900628 110.46585105 15.16748047 106.42431641 C15.19003906 105.28220703 15.21259766 104.14009766 15.23583984 102.96337891 C15.46351458 95.84336898 15.6637624 90.56440486 21.09326172 85.43457031 C24.287835 83.25383349 25.98440277 83.01845646 29.81201172 82.93994141 C30.92382812 82.90771484 32.03564453 82.87548828 33.18115234 82.84228516 C34.33164063 82.82810547 35.48212891 82.81392578 36.66748047 82.79931641 C37.83730469 82.76966797 39.00712891 82.74001953 40.21240234 82.70947266 C43.09289266 82.63893004 45.97394031 82.59184098 48.85498047 82.54931641 C48.85498047 88.81931641 48.85498047 95.08931641 48.85498047 101.54931641 C50.17498047 101.87931641 51.49498047 102.20931641 52.85498047 102.54931641 C54.60622891 101.5477014 54.60622891 101.5477014 56.14013672 99.90087891 C56.74801025 99.31177734 57.35588379 98.72267578 57.98217773 98.11572266 C58.62082764 97.47505859 59.25947754 96.83439453 59.91748047 96.17431641 C61.2586268 94.87215025 62.60239288 93.57267699 63.94873047 92.27587891 C64.94066406 91.3172998 64.94066406 91.3172998 65.95263672 90.33935547 C68.50946542 87.93346891 71.17507037 85.74173766 73.91748047 83.54931641 C79.72662821 78.90406679 79.72662821 78.90406679 84.85498047 73.54931641 C84.56909287 70.15613797 83.21770974 68.58236867 80.75732422 66.34228516 C80.1244751 65.75906494 79.49162598 65.17584473 78.83959961 64.57495117 C77.82627563 63.66507446 77.82627563 63.66507446 76.79248047 62.73681641 C76.10726318 62.11025146 75.4220459 61.48368652 74.71606445 60.83813477 C70.73039186 57.20451493 66.73042596 53.58210331 62.62451172 50.08447266 C61.30170608 48.93687306 60.01245226 47.75039409 58.74169922 46.54541016 C58.03658203 45.88669922 57.33146484 45.22798828 56.60498047 44.54931641 C55.98107422 43.95119141 55.35716797 43.35306641 54.71435547 42.73681641 C54.10076172 42.34494141 53.48716797 41.95306641 52.85498047 41.54931641 C50.87498047 42.04431641 50.87498047 42.04431641 48.85498047 42.54931641 C48.85498047 48.81931641 48.85498047 55.08931641 48.85498047 61.54931641 C47.18951172 61.50291016 45.52404297 61.45650391 43.80810547 61.40869141 C23.71571572 60.67818624 23.71571572 60.67818624 6.41748047 69.73681641 C2.19264145 73.85993378 -0.86464852 78.10493061 -3.14501953 83.54931641 C-3.66298096 84.75382446 -3.66298096 84.75382446 -4.19140625 85.98266602 C-5.52497754 90.97041385 -5.39130411 95.7143771 -5.34033203 100.85400391 C-5.33750214 101.93312042 -5.33467224 103.01223694 -5.33175659 104.12405396 C-5.32059613 107.5575894 -5.29549883 110.99086031 -5.27001953 114.42431641 C-5.2599844 116.75764596 -5.25085948 119.09097962 -5.24267578 121.42431641 C-5.22067032 127.13273941 -5.1872338 132.841009 -5.14501953 138.54931641 C3.74001703 138.6192919 12.62495653 138.67236624 21.51021004 138.70475292 C25.63744063 138.72030871 29.76448062 138.74135875 33.89160156 138.77563477 C37.88573921 138.80859305 41.87969529 138.82624492 45.87395859 138.83394814 C47.38634977 138.83942706 48.89873272 138.85012267 50.41104507 138.86650658 C63.10703717 138.99839103 75.60041396 138.02827647 87.04248047 131.98681641 C87.70900635 131.64021973 88.37553223 131.29362305 89.06225586 130.93652344 C104.38935835 122.60380747 113.69488183 109.01002043 118.92529297 92.70556641 C119.38548828 91.14322266 119.38548828 91.14322266 119.85498047 89.54931641 C120.22236328 88.42009766 120.22236328 88.42009766 120.59716797 87.26806641 C125.35923732 70.30727146 120.86548228 51.82360459 112.75341797 36.72900391 C103.90043908 21.90117507 90.56866549 11.63607509 73.89802551 7.00576782 C65.75500634 5.12406527 57.64686084 5.29577478 49.34716797 5.35400391 C47.76962464 5.35774152 46.19207897 5.36058495 44.61453247 5.36257935 C40.49476531 5.37015694 36.37514278 5.38975379 32.25543213 5.4119873 C27.29514555 5.43620312 22.33481017 5.44525474 17.3744812 5.45689392 C9.86788086 5.47618254 2.36159687 5.51454567 -5.14501953 5.54931641 Z " fill="#E3E0E1" transform="translate(36.14501953125,8.45068359375)"/>
<path d="M0 0 C7.35711563 5.26080501 10.95404275 12.66659404 12.7421875 21.4296875 C14.42745723 34.20563708 13.38185773 46.06223242 5.6875 56.66796875 C1.17289504 62.17050253 -4.09907593 65.16866706 -11.12890625 65.86328125 C-19.54783356 66.12412408 -25.49203173 65.59832494 -31.7421875 59.7734375 C-41.85533953 48.95768754 -42.43405343 37.92607147 -41.97949219 23.76171875 C-41.42089511 14.34418582 -37.12685646 7.59881654 -30.41015625 1.2265625 C-20.88489766 -5.04616877 -10.07412406 -5.84527782 0 0 Z " fill="#F1F6F7" transform="translate(356.84765625,49.4609375)"/>
<path d="M0 0 C5.97737327 -0.02482932 11.95471611 -0.04292109 17.93212891 -0.05493164 C19.96305871 -0.05994189 21.99398494 -0.06675191 24.02490234 -0.07543945 C26.95411057 -0.08765047 29.88327085 -0.09326153 32.8125 -0.09765625 C33.71178223 -0.10281754 34.61106445 -0.10797882 35.53759766 -0.11329651 C40.78569067 -0.11375728 45.80624001 0.23729846 51 1 C51 1.66 51 2.32 51 3 C51.66 3.33 52.32 3.66 53 4 C52.67 4.66 52.34 5.32 52 6 C52.99 6.0928125 52.99 6.0928125 54 6.1875 C58.1216675 7.30378495 61.65750502 9.33761566 65 12 C65 12.66 65 13.32 65 14 C65.89525391 14.38285156 65.89525391 14.38285156 66.80859375 14.7734375 C72.32614431 17.86169218 75.55902626 24.24309178 77.4765625 30.0859375 C81.59407947 45.1425294 78.34626674 57.79531801 71 71 C66.35665182 78.56693777 57.19141335 82.40605244 49 85 C43.85931986 86.10170959 38.89257001 86.1296306 33.6640625 86.09765625 C32.78471039 86.0962413 31.90535828 86.09482635 30.99935913 86.09336853 C28.20787058 86.08779877 25.41646406 86.0752519 22.625 86.0625 C20.72526158 86.05748109 18.8255219 86.05291887 16.92578125 86.04882812 C12.28382286 86.03783925 7.64192531 86.02059557 3 86 C2.85415936 82.77131254 2.76575894 79.54347635 2.6875 76.3125 C2.64560547 75.40048828 2.60371094 74.48847656 2.56054688 73.54882812 C2.43615494 66.70727147 2.43615494 66.70727147 5.45703125 62.91796875 C6.29621094 62.28503906 7.13539062 61.65210938 8 61 C8.495 60.505 8.495 60.505 9 60 C10.34267413 59.91368126 11.68974322 59.89293527 13.03515625 59.90234375 C13.84404297 59.90556641 14.65292969 59.90878906 15.48632812 59.91210938 C16.33646484 59.92048828 17.18660156 59.92886719 18.0625 59.9375 C18.91650391 59.94201172 19.77050781 59.94652344 20.65039062 59.95117188 C22.76695663 59.96299627 24.88348685 59.98093231 27 60 C27.03738281 61.12019531 27.07476562 62.24039063 27.11328125 63.39453125 C27.17894257 64.8672209 27.24538986 66.33987566 27.3125 67.8125 C27.33505859 68.55048828 27.35761719 69.28847656 27.38085938 70.04882812 C27.56385217 74.26147403 27.56385217 74.26147403 29.375 77.97265625 C32.19257004 79.75395654 33.72079079 79.61871872 37 79 C39.18467214 77.35507039 41.12740937 75.56306927 43.10546875 73.67578125 C45.25025225 71.77864286 47.34928028 71.01351048 50 70 C51.09166275 68.06669397 51.09166275 68.06669397 52 66 C55.42857143 63 55.42857143 63 58 63 C58.21527344 62.43539062 58.43054688 61.87078125 58.65234375 61.2890625 C60.45490254 58.22732496 62.76824683 56.55357026 65.5625 54.375 C69.33561389 51.64991295 69.33561389 51.64991295 72 48 C72.13357453 44.32670036 72.1671568 41.50147041 71 38 C69.68399807 37.29974209 68.345905 36.64090714 67 36 C65.05161702 34.54143397 63.13680333 33.0373953 61.25 31.5 C60.26515625 30.7059375 59.2803125 29.911875 58.265625 29.09375 C57.14414063 28.05734375 57.14414063 28.05734375 56 27 C56 26.34 56 25.68 56 25 C55.38125 24.7525 54.7625 24.505 54.125 24.25 C52 23 52 23 51 20.9375 C50.1704178 18.78719721 50.1704178 18.78719721 47.875 18.25 C47.25625 18.1675 46.6375 18.085 46 18 C46 17.34 46 16.68 46 16 C44.68 15.34 43.36 14.68 42 14 C42 13.34 42 12.68 42 12 C38.53269093 10.41494443 35.81875349 9.41249946 32 10 C28.7460626 12.37857391 28.05987553 13.63921156 27.390625 17.671875 C27.32467436 19.03045815 27.27827746 20.39011102 27.25 21.75 C27.20552734 22.79607422 27.20552734 22.79607422 27.16015625 23.86328125 C27.08981542 25.57490813 27.04260054 27.28745815 27 29 C26.42556152 29.02505615 25.85112305 29.0501123 25.25927734 29.07592773 C22.63100279 29.19269875 20.00301605 29.31505419 17.375 29.4375 C16.47136719 29.47681641 15.56773438 29.51613281 14.63671875 29.55664062 C10.85305806 29.73615737 7.26686014 29.94909778 3.5390625 30.66015625 C1 31 1 31 -2 29 C-1.67 28.34 -1.34 27.68 -1 27 C-1.99 26.67 -2.98 26.34 -4 26 C-0.535 25.505 -0.535 25.505 3 25 C2.88658363 22.68690295 2.75896193 20.37449815 2.625 18.0625 C2.52058594 16.13083984 2.52058594 16.13083984 2.4140625 14.16015625 C2.27742188 13.11730469 2.14078125 12.07445312 2 11 C1.34 10.67 0.68 10.34 0 10 C0 6.7 0 3.4 0 0 Z " fill="#F3F8F9" transform="translate(53,36)"/>
<path d="M0 0 C6.93 0 13.86 0 21 0 C21 6.27 21 12.54 21 19 C26.61 19 32.22 19 38 19 C38 24.61 38 30.22 38 36 C32.39 36 26.78 36 21 36 C21.0740806 41.32103084 21.15697972 46.64040518 21.26245117 51.96069336 C21.29565114 53.76952458 21.32369841 55.57845818 21.34643555 57.38745117 C21.38007258 59.99181633 21.43239195 62.5952476 21.48828125 65.19921875 C21.49467117 66.00461594 21.5010611 66.81001312 21.50764465 67.63981628 C21.63806523 72.65004334 22.28569228 76.28569228 26 80 C28.18639453 80.07258946 30.37500389 80.08373783 32.5625 80.0625 C34.686875 80.041875 36.81125 80.02125 39 80 C39 85.94 39 91.88 39 98 C28.79863873 99.70022688 17.98491237 100.2141196 8.625 95.1875 C3.9704845 91.30873708 1.51402159 87.87184901 0 82 C-0.26418591 78.44797971 -0.23299567 74.91168455 -0.1953125 71.3515625 C-0.1924826 70.33903412 -0.18965271 69.32650574 -0.18673706 68.28329468 C-0.17558254 65.06374062 -0.15048646 61.84446935 -0.125 58.625 C-0.1149641 56.43620195 -0.10583931 54.24739951 -0.09765625 52.05859375 C-0.07565865 46.70562096 -0.04116122 41.35285835 0 36 C-3.96 36 -7.92 36 -12 36 C-12 30.39 -12 24.78 -12 19 C-8.04 19 -4.08 19 0 19 C0 12.73 0 6.46 0 0 Z " fill="#101010" transform="translate(448,36)"/>
<path d="M0 0 C27.65517241 0 27.65517241 0 36.875 8.625 C44.81900724 18.785066 45.27321922 30.59934629 44 43 C42.43686269 51.01917187 38.92449359 56.4577318 33 62 C23 67 23 67 0 67 C0 44.89 0 22.78 0 0 Z " fill="#F2F7F8" transform="translate(214,47)"/>
<path d="M0 0 C7.26 0 14.52 0 22 0 C22 26.07 22 52.14 22 79 C14.74 79 7.48 79 0 79 C0 52.93 0 26.86 0 0 Z " fill="#0F1010" transform="translate(405,55)"/>
<path d="M0 0 C0.7129422 -0.01022186 1.4258844 -0.02044373 2.16043091 -0.03097534 C4.51989352 -0.05878366 6.87818571 -0.05684801 9.23779297 -0.05224609 C10.89289781 -0.06003041 12.54799869 -0.06870188 14.20309448 -0.07821655 C17.68175134 -0.09315244 21.16000262 -0.09255891 24.63867188 -0.08203125 C29.04523173 -0.07055845 33.45007802 -0.10400571 37.85635567 -0.1507206 C41.28336927 -0.18057733 44.70999096 -0.18188596 48.13711166 -0.17570114 C49.75784519 -0.17671256 51.37860524 -0.18689855 52.99921036 -0.20732498 C69.21894757 -0.38636695 84.06698441 3.61816075 97.72998047 12.61181641 C98.90173828 13.37171875 98.90173828 13.37171875 100.09716797 14.14697266 C100.67724609 14.60974609 101.25732422 15.07251953 101.85498047 15.54931641 C101.85498047 16.20931641 101.85498047 16.86931641 101.85498047 17.54931641 C102.43505859 17.79810547 103.01513672 18.04689453 103.61279297 18.30322266 C115.09805057 24.68614457 121.32496822 40.72141959 124.76513672 52.72509766 C129.63508708 72.72587053 126.93106493 93.27602876 116.49951172 111.15869141 C111.34536265 118.65118363 105.29531326 126.24868716 97.85498047 131.54931641 C95.08154297 132.03759766 95.08154297 132.03759766 92.47998047 131.86181641 C91.60599609 131.81669922 90.73201172 131.77158203 89.83154297 131.72509766 C89.17927734 131.66708984 88.52701172 131.60908203 87.85498047 131.54931641 C92.49544527 127.80700608 92.49544527 127.80700608 94.90966797 126.07666016 C109.17949977 115.63351336 117.51744218 99.867476 120.55761719 82.62890625 C123.35489123 63.06636087 117.898619 44.06531725 106.16748047 28.23681641 C99.82277655 20.77318214 91.83296643 14.7501245 82.59716797 11.40087891 C80.85498047 10.54931641 80.85498047 10.54931641 78.85498047 7.54931641 C76.29215305 6.81966274 76.29215305 6.81966274 73.85498047 6.54931641 C73.85498047 5.88931641 73.85498047 5.22931641 73.85498047 4.54931641 C47.45498047 4.54931641 21.05498047 4.54931641 -6.14501953 4.54931641 C-6.14501953 23.02931641 -6.14501953 41.50931641 -6.14501953 60.54931641 C-3.83501953 59.55931641 -1.52501953 58.56931641 0.85498047 57.54931641 C2.33998047 57.05431641 2.33998047 57.05431641 3.85498047 56.54931641 C3.54248047 58.48681641 3.54248047 58.48681641 2.85498047 60.54931641 C1.36998047 61.04431641 1.36998047 61.04431641 -0.14501953 61.54931641 C-0.14501953 62.20931641 -0.14501953 62.86931641 -0.14501953 63.54931641 C-3.73259015 67.13688703 -3.73259015 67.13688703 -6.14501953 68.54931641 C-9.02001953 68.36181641 -9.02001953 68.36181641 -11.14501953 67.54931641 C-11.89782595 63.54027798 -12.2629335 59.77595668 -12.23022461 55.69921875 C-12.22303909 54.57139984 -12.21585358 53.44358093 -12.20845032 52.28158569 C-12.19396347 51.0782962 -12.17947662 49.87500671 -12.16455078 48.63525391 C-12.15042648 47.38805573 -12.13630219 46.14085754 -12.12174988 44.85586548 C-12.08870059 42.22499419 -12.05235616 39.5941625 -12.01293945 36.96337891 C-11.96339756 33.5964673 -11.93733934 30.22979442 -11.91650867 26.86260033 C-11.89124145 23.64074453 -11.83846587 20.41932412 -11.78955078 17.19775391 C-11.78518509 15.99041595 -11.7808194 14.783078 -11.77632141 13.53915405 C-11.75337509 12.41763947 -11.73042877 11.29612488 -11.70678711 10.140625 C-11.69488846 9.1550058 -11.68298981 8.1693866 -11.67073059 7.15390015 C-10.3410287 0.5660229 -6.02530292 0.04314194 0 0 Z " fill="#E4E1E2" transform="translate(36.14501953125,8.45068359375)"/>
<path d="M0 0 C26.4 0 52.8 0 80 0 C80 0.66 80 1.32 80 2 C81.175625 1.9071875 81.175625 1.9071875 82.375 1.8125 C83.674375 1.9053125 83.674375 1.9053125 85 2 C85.99 3.485 85.99 3.485 87 5 C86.11436874 4.78937424 85.22873749 4.57874847 84.31626892 4.36174011 C74.44610961 2.18011728 65.08907929 1.52990522 55.00390625 1.48828125 C53.43349353 1.47138172 51.8630939 1.45322469 50.29270935 1.43388367 C46.21422422 1.38694859 42.1357921 1.35677775 38.05712891 1.33044434 C33.13411103 1.29503214 28.21129689 1.2381852 23.28844452 1.18505096 C15.8589913 1.10720188 8.42979234 1.0560958 1 1 C1 18.82 1 36.64 1 55 C4.3 52.69 7.6 50.38 11 48 C18.38461538 44 18.38461538 44 21 44 C21 36.41 21 28.82 21 21 C27.43791529 20.90751598 33.87346988 20.82807603 40.31152344 20.78027344 C42.49552273 20.76031942 44.67946973 20.73314629 46.86328125 20.69824219 C65.43077747 20.40918776 80.09761183 21.16577487 94.4375 34.21875 C100.50662437 40.36773127 103.50710591 46.78680429 106 55 C106.19980469 55.63421875 106.39960938 56.2684375 106.60546875 56.921875 C108.95546648 69.30008089 106.94308385 83.1770381 100.25 93.875 C92.00814942 104.96028903 82.4426692 110.92383344 69 114 C65.16499589 114.36848893 61.37319085 114.35267758 57.5234375 114.29296875 C55.94654648 114.28660149 55.94654648 114.28660149 54.33779907 114.28010559 C51.01659317 114.26346139 47.69601906 114.22583614 44.375 114.1875 C42.10808175 114.17243473 39.84115388 114.15874957 37.57421875 114.14648438 C32.04926764 114.11360482 26.52467898 114.06355009 21 114 C20.94203868 109.89589245 20.90641687 105.79188984 20.875 101.6875 C20.85824219 100.52025391 20.84148438 99.35300781 20.82421875 98.15039062 C20.81777344 97.03212891 20.81132813 95.91386719 20.8046875 94.76171875 C20.79421387 93.73006592 20.78374023 92.69841309 20.77294922 91.63549805 C21 89 21 89 23 86 C23 94.58 23 103.16 23 112 C28.95918357 111.87963832 34.91821106 111.75678012 40.87719727 111.62768555 C42.90125551 111.58457238 44.92534463 111.54288243 46.94946289 111.50268555 C49.87135083 111.44440608 52.79308676 111.38088285 55.71484375 111.31640625 C56.60896469 111.29969376 57.50308563 111.28298126 58.42430115 111.26576233 C64.00580355 111.13634746 69.45904641 110.68985731 75 110 C74.67 109.01 74.34 108.02 74 107 C76.24151134 104.75848866 77.93138755 104.11804865 80.875 103 C82.58802103 102.34547256 84.29662223 101.67922852 86 101 C86.72445312 100.71125 87.44890625 100.4225 88.1953125 100.125 C90.46744225 98.70860743 90.95785339 97.43618689 92 95 C92.80057584 93.7423297 93.61348533 92.49243957 94.4375 91.25 C101.19759894 80.56146598 102.41520113 69.0463914 100.25 56.6875 C97.74029204 45.85889994 91.34875878 37.90261897 82 32 C80.70095088 31.44647043 79.38875116 30.92224888 78.0625 30.4375 C77.051875 29.963125 76.04125 29.48875 75 29 C74.67 27.35 74.34 25.7 74 24 C57.17 23.67 40.34 23.34 23 23 C23 26.3 23 29.6 23 33 C24.485 33.495 24.485 33.495 26 34 C26 38.62 26 43.24 26 48 C24.659375 48.433125 23.31875 48.86625 21.9375 49.3125 C17.84758831 50.67148964 13.93348251 52.24248654 10 54 C10 53.34 10 52.68 10 52 C9.0925 52.66 8.185 53.32 7.25 54 C4 56 4 56 0 56 C0 37.52 0 19.04 0 0 Z " fill="#E3E0E0" transform="translate(30,13)"/>
<path d="M0 0 C26.4 0 52.8 0 80 0 C80 0.66 80 1.32 80 2 C81.175625 1.9071875 81.175625 1.9071875 82.375 1.8125 C83.674375 1.9053125 83.674375 1.9053125 85 2 C85.99 3.485 85.99 3.485 87 5 C86.11436874 4.78937424 85.22873749 4.57874847 84.31626892 4.36174011 C74.44610961 2.18011728 65.08907929 1.52990522 55.00390625 1.48828125 C53.43349353 1.47138172 51.8630939 1.45322469 50.29270935 1.43388367 C46.21422422 1.38694859 42.1357921 1.35677775 38.05712891 1.33044434 C33.13411103 1.29503214 28.21129689 1.2381852 23.28844452 1.18505096 C15.8589913 1.10720188 8.42979234 1.0560958 1 1 C1 18.82 1 36.64 1 55 C4.3 52.69 7.6 50.38 11 48 C18.38461538 44 18.38461538 44 21 44 C21 36.41 21 28.82 21 21 C27.43791529 20.90751598 33.87346988 20.82807603 40.31152344 20.78027344 C42.49552273 20.76031942 44.67946973 20.73314629 46.86328125 20.69824219 C63.53169991 20.43875215 78.77640834 20.30331544 92 32 C92.33 32.66 92.66 33.32 93 34 C89 32 85 30 81 28 C80.505 28.495 80.505 28.495 80 29 C78.33382885 29.04063832 76.66611905 29.042721 75 29 C74.67 27.35 74.34 25.7 74 24 C57.17 23.67 40.34 23.34 23 23 C23 26.3 23 29.6 23 33 C24.485 33.495 24.485 33.495 26 34 C26 38.62 26 43.24 26 48 C24.659375 48.433125 23.31875 48.86625 21.9375 49.3125 C17.84758831 50.67148964 13.93348251 52.24248654 10 54 C10 53.34 10 52.68 10 52 C9.0925 52.66 8.185 53.32 7.25 54 C4 56 4 56 0 56 C0 37.52 0 19.04 0 0 Z " fill="#EADDD7" transform="translate(30,13)"/>
<path d="M0 0 C3.83967527 1.32911836 5.5559744 2.38409352 7.9375 5.6875 C9.25743258 9.80258392 9.41055212 12.89503993 8 17 C5.80742191 19.64233769 4.06660382 21.46669809 1 23 C-3.30411714 23.24771897 -7.34261245 23.07299078 -11.02734375 20.6875 C-13.47673136 18.19776954 -14.83509903 16.20789957 -15.3125 12.7109375 C-15.08300552 8.42225943 -14.3124526 6.38455704 -11.5625 3 C-7.49462839 -0.17492418 -5.17724555 -0.3451497 0 0 Z " fill="#131314" transform="translate(419,24)"/>
<path d="M0 0 C0.98613281 0.00322266 1.97226563 0.00644531 2.98828125 0.00976562 C4.02082031 0.01814453 5.05335937 0.02652344 6.1171875 0.03515625 C7.67759766 0.04192383 7.67759766 0.04192383 9.26953125 0.04882812 C11.84377437 0.06063658 14.41798803 0.0785724 16.9921875 0.09765625 C17.3221875 6.69765625 17.6521875 13.29765625 17.9921875 20.09765625 C19.3121875 20.75765625 20.6321875 21.41765625 21.9921875 22.09765625 C22.4871875 23.08765625 22.4871875 23.08765625 22.9921875 24.09765625 C19.60570152 24.40551861 17.65858252 24.55461283 14.8046875 22.59765625 C12.27934227 19.11442146 12.55281386 15.9701748 12.7421875 11.84765625 C12.76023437 11.10257813 12.77828125 10.3575 12.796875 9.58984375 C12.84383101 7.75855924 12.91557098 5.92793976 12.9921875 4.09765625 C10.09331632 4.130769 7.20202128 4.19803519 4.3046875 4.28515625 C3.48806641 4.29095703 2.67144531 4.29675781 1.83007812 4.30273438 C-2.23685836 4.45092234 -4.53578141 4.80081196 -8.0390625 7.00390625 C-10.85261254 11.42519917 -10.78590537 15.27188724 -10.8203125 20.41015625 C-10.8521053 22.1382962 -10.88566643 23.8664042 -10.9206543 25.59448242 C-10.93710495 26.44443283 -10.9535556 27.29438324 -10.97050476 28.17008972 C-10.98897209 29.12423515 -10.98897209 29.12423515 -11.0078125 30.09765625 C-5.45755375 29.97877674 0.09254881 29.8544904 5.64257812 29.7253418 C7.52796192 29.68221316 9.41337924 29.64052403 11.29882812 29.6003418 C14.01963374 29.54210045 16.74027398 29.47856557 19.4609375 29.4140625 C20.29459839 29.39735001 21.12825928 29.38063751 21.98718262 29.36341858 C27.054523 29.2371177 31.97212132 28.80580816 36.9921875 28.09765625 C37.4871875 29.58265625 37.4871875 29.58265625 37.9921875 31.09765625 C31.41310008 32.78250894 25.48168433 33.3711817 18.70703125 33.29296875 C17.76533585 33.29013885 16.82364044 33.28730896 15.85340881 33.28439331 C12.87869959 33.27329832 9.90430399 33.24821427 6.9296875 33.22265625 C4.89909292 33.21261262 2.86849358 33.20348921 0.83789062 33.1953125 C-4.11079586 33.17339409 -9.05925121 33.13893925 -14.0078125 33.09765625 C-14.21178274 28.89004161 -14.33567317 24.68370168 -14.4453125 20.47265625 C-14.50396484 19.28285156 -14.56261719 18.09304687 -14.62304688 16.8671875 C-14.79246085 8.20287292 -14.79246085 8.20287292 -12.48876953 4.95800781 C-8.43806767 1.44396881 -5.36059446 -0.03080801 0 0 Z " fill="#DFE2E6" transform="translate(67.0078125,91.90234375)"/>
<path d="M0 0 C0.66 0.33 1.32 0.66 2 1 C1.72285156 1.53109375 1.44570313 2.0621875 1.16015625 2.609375 C0.79792969 3.31578125 0.43570313 4.0221875 0.0625 4.75 C-0.29714844 5.44609375 -0.65679687 6.1421875 -1.02734375 6.859375 C-2.71125824 10.56533942 -3.13220938 13.89960575 -3.20532227 17.95214844 C-3.22526749 18.93286316 -3.24521271 19.91357788 -3.26576233 20.92401123 C-3.28247482 21.97518127 -3.29918732 23.02635132 -3.31640625 24.109375 C-3.33718735 25.19132141 -3.35796844 26.27326782 -3.37937927 27.38800049 C-3.44472931 30.84193613 -3.50369229 34.29594737 -3.5625 37.75 C-3.60569904 40.09245571 -3.64931378 42.4349038 -3.69335938 44.77734375 C-3.80039583 50.5181494 -3.90218926 56.25903015 -4 62 C4.85074174 61.93829523 13.70117478 61.86084535 22.55160522 61.76428509 C26.66296358 61.71990277 30.77423013 61.68057996 34.88574219 61.65356445 C38.86709803 61.62720556 42.84809416 61.58658498 46.82922363 61.53681374 C48.33430442 61.52036179 49.8394471 61.50871475 51.34460449 61.50238609 C61.87440849 61.45371344 71.71302387 60.25880819 82 58 C77.285346 63.51455868 71.9245727 63.419633 65 64 C59.39573745 64.23429067 53.80718028 64.23507538 48.19921875 64.1953125 C46.62596315 64.19157175 45.05270519 64.18872981 43.47944641 64.18673706 C39.38438219 64.17918407 35.28946503 64.15960967 31.19445801 64.1373291 C26.99749744 64.11668865 22.80051257 64.10769685 18.60351562 64.09765625 C10.40227706 64.07635387 2.20115694 64.04232174 -6 64 C-6.33 62.35 -6.66 60.7 -7 59 C-7.66 59 -8.32 59 -9 59 C-9.02465504 54.60343827 -9.04283842 50.2069128 -9.05493164 45.81030273 C-9.05997121 44.31355082 -9.06680287 42.81680384 -9.07543945 41.32006836 C-9.08752159 39.17300193 -9.09323191 37.02600038 -9.09765625 34.87890625 C-9.10289307 33.5854126 -9.10812988 32.29191895 -9.11352539 30.95922852 C-9 28 -9 28 -8 27 C-7.72504755 24.87808432 -7.4807137 22.75218034 -7.25 20.625 C-6.3210437 13.6897385 -4.26614827 8.14536608 -1 2 C-0.67 1.34 -0.34 0.68 0 0 Z " fill="#F0C5B8" transform="translate(35,85)"/>
<path d="M0 0 C44 0 44 0 50 1 C50 1.33 50 1.66 50 2 C34.16 2 18.32 2 2 2 C2 35.99 2 69.98 2 105 C17.18 105 32.36 105 48 105 C33.67674773 112.16162613 16.01388287 107 0 107 C0 71.69 0 36.38 0 0 Z " fill="#212223" transform="translate(191,27)"/>
<path d="M0 0 C1.32 0.33 2.64 0.66 4 1 C4.6483289 3.22844214 5.29356369 5.4577846 5.9375 7.6875 C6.47697266 9.54955078 6.47697266 9.54955078 7.02734375 11.44921875 C8.58246253 17.12633913 9.18048625 22.34566098 9.23828125 28.23046875 C9.246353 29.02093094 9.25442474 29.81139313 9.26274109 30.62580872 C9.27653302 32.29584595 9.28727691 33.96591078 9.29516602 35.63598633 C9.30666177 37.32812884 9.32707549 39.02023579 9.35668945 40.7121582 C9.66921328 58.59585421 9.66921328 58.59585421 5 67 C4.55398437 67.91652344 4.10796875 68.83304687 3.6484375 69.77734375 C-1.28392102 78.14419731 -7.8726442 86.53982598 -16 92 C-18.67578125 92.390625 -18.67578125 92.390625 -21.3125 92.25 C-22.19550781 92.21390625 -23.07851562 92.1778125 -23.98828125 92.140625 C-24.65214844 92.09421875 -25.31601563 92.0478125 -26 92 C-21.3595352 88.25768968 -21.3595352 88.25768968 -18.9453125 86.52734375 C-4.6754807 76.08419695 3.66246171 60.3181596 6.70263672 43.07958984 C8.84370998 28.1061399 5.77329004 13.85589609 0 0 Z " fill="#E2E0E3" transform="translate(150,48)"/>
<path d="M0 0 C0.87651211 2.4542339 1.22071981 3.53321948 0.08242798 5.94049072 C-0.27477325 6.62012878 -0.63197449 7.29976685 -1 8 C-1.32379849 10.38049213 -1.32379849 10.38049213 -1.31884766 12.95214844 C-1.33871735 13.93286316 -1.35858704 14.91357788 -1.37905884 15.92401123 C-1.39061005 16.97518127 -1.40216125 18.02635132 -1.4140625 19.109375 C-1.43342865 20.19132141 -1.4527948 21.27326782 -1.4727478 22.38800049 C-1.53250237 25.84192026 -1.57891297 29.29587344 -1.625 32.75 C-1.66318353 35.09246241 -1.70223548 37.43491084 -1.7421875 39.77734375 C-1.83820056 45.51810499 -1.92326027 51.25895053 -2 57 C7.24005692 56.89265809 16.48003016 56.78005772 25.71993923 56.66066074 C30.0099621 56.60539264 34.29999174 56.55196657 38.59008789 56.50268555 C42.72685436 56.45509914 46.86353536 56.40275868 51.00020027 56.34705925 C52.58189847 56.32660966 54.16362012 56.30790097 55.74535942 56.29092598 C57.95329178 56.2669393 60.1610612 56.23687744 62.36889648 56.20532227 C63.62798325 56.18977798 64.88707001 56.1742337 66.18431091 56.15821838 C68.90297541 56.31913196 68.90297541 56.31913196 70 55 C72.65463121 54.54540142 75.32189138 54.29756762 78 54 C78 53.67 78 53.34 78 53 C82.455 52.505 82.455 52.505 87 52 C84.56025552 54.43974448 82.5806266 54.98405923 79.3125 56.0625 C78.29800781 56.40410156 77.28351563 56.74570313 76.23828125 57.09765625 C70.43060776 58.71595851 64.78965722 59.12439359 58.77954102 59.11352539 C58.09576889 59.11367142 57.41199677 59.11381744 56.70750427 59.1139679 C54.47293803 59.11327755 52.23845772 59.10552677 50.00390625 59.09765625 C48.44449407 59.09578895 46.88508131 59.09436652 45.32566833 59.09336853 C41.24043124 59.08956796 37.15523025 59.07975891 33.07000732 59.06866455 C28.89368172 59.05839731 24.71735024 59.05385957 20.54101562 59.04882812 C12.3606606 59.03813423 4.1803348 59.02108765 -4 59 C-4.10201175 52.2048841 -4.1717207 45.40996808 -4.21972656 38.61425781 C-4.23975417 36.30591451 -4.26698439 33.99762138 -4.30175781 31.68945312 C-4.35066594 28.35794643 -4.37305811 25.02711462 -4.390625 21.6953125 C-4.41127014 20.67511017 -4.43191528 19.65490784 -4.45318604 18.60379028 C-4.45533833 11.62052246 -3.04498294 6.28018291 0 0 Z " fill="#DD4712" transform="translate(35,88)"/>
<path d="M0 0 C17.19776614 -0.12032643 17.19776614 -0.12032643 24.60351562 -0.14648438 C29.63071348 -0.16432602 34.65774536 -0.18529062 39.68481445 -0.22631836 C43.74378576 -0.25923278 47.80257875 -0.27691961 51.86167336 -0.28463173 C53.40001032 -0.29011832 54.93833899 -0.30082978 56.47659874 -0.31719017 C68.71697068 -0.44203936 80.18752799 0.68614022 91.3125 6.1875 C92.40175781 6.71730469 93.49101563 7.24710938 94.61328125 7.79296875 C95.40089844 8.19128906 96.18851562 8.58960938 97 9 C96.01 9.33 95.02 9.66 94 10 C93.38125 9.67 92.7625 9.34 92.125 9 C89.34520442 7.6918609 87.93012838 8.2674679 85 9 C83.68 9 82.36 9 81 9 C81.66 8.67 82.32 8.34 83 8 C83 7.34 83 6.68 83 6 C82.01 5.67 81.02 5.34 80 5 C80 4.34 80 3.68 80 3 C79.06027344 3.01740234 79.06027344 3.01740234 78.1015625 3.03515625 C77.28429687 3.04417969 76.46703125 3.05320312 75.625 3.0625 C74.81289062 3.07410156 74.00078125 3.08570313 73.1640625 3.09765625 C71 3 71 3 69 2 C66.84588426 1.87922947 64.68808039 1.82253978 62.53076172 1.79467773 C61.86722687 1.78477814 61.20369202 1.77487854 60.52005005 1.76467896 C58.32329903 1.73305084 56.12652637 1.70830146 53.9296875 1.68359375 C52.40796339 1.66302534 50.886245 1.6420289 49.36453247 1.62062073 C45.3565535 1.56538829 41.34852287 1.51598422 37.3404541 1.46777344 C32.53295736 1.40874194 27.72555517 1.34250753 22.9181366 1.27747345 C15.61214874 1.17944916 8.30610064 1.09060336 1 1 C1 16.18 1 31.36 1 47 C1.66 47 2.32 47 3 47 C3.33 45.68 3.66 44.36 4 43 C4.66 43.33 5.32 43.66 6 44 C7.70702735 44.06996014 9.41668003 44.08440154 11.125 44.0625 C12.03507812 44.05347656 12.94515625 44.04445312 13.8828125 44.03515625 C14.58148438 44.02355469 15.28015625 44.01195312 16 44 C13.20058024 46.12985467 10.35510301 48.16018444 7.4375 50.125 C6.29087891 50.90230469 6.29087891 50.90230469 5.12109375 51.6953125 C3 53 3 53 0 54 C0 36.18 0 18.36 0 0 Z " fill="#D04313" transform="translate(31,14)"/>
<path d="M0 0 C6.76773194 3.38386597 9.32712961 11.11087154 11.70654297 18.06494141 C15.93670481 31.95565788 16.79833223 46.86176336 13 61 C12.34 61.99 11.68 62.98 11 64 C10 63 10 63 9.94995117 60.03515625 C9.98064697 58.72417969 10.01134277 57.41320312 10.04296875 56.0625 C10.06843676 54.60223695 10.09247066 53.14194834 10.11523438 51.68164062 C10.12772217 50.9156958 10.14020996 50.14975098 10.15307617 49.3605957 C10.34351749 36.30118331 10.0408211 24.55540841 6 12 C6 11.34 6 10.68 6 10 C4.68 9.67 3.36 9.34 2 9 C1.34 6.03 0.68 3.06 0 0 Z " fill="#E1E3E7" transform="translate(148,39)"/>
<path d="M0 0 C0.33 0 0.66 0 1 0 C1 8.58 1 17.16 1 26 C6.95918357 25.87963832 12.91821106 25.75678012 18.87719727 25.62768555 C20.90125551 25.58457238 22.92534463 25.54288243 24.94946289 25.50268555 C27.87135083 25.44440608 30.79308676 25.38088285 33.71484375 25.31640625 C34.60896469 25.29969376 35.50308563 25.28298126 36.42430115 25.26576233 C42.00580355 25.13634746 47.45904641 24.68985731 53 24 C52.505 22.515 52.505 22.515 52 21 C57.32932432 19.29915181 62.43109483 18.47986031 68 18 C62.1916714 24.25239042 52.60798408 27.46711096 44.26019287 28.26034546 C41.34312592 28.34387997 38.44131559 28.3382244 35.5234375 28.29296875 C33.94654648 28.28660149 33.94654648 28.28660149 32.33779907 28.28010559 C29.01659317 28.26346139 25.69601906 28.22583614 22.375 28.1875 C20.10808175 28.17243473 17.84115388 28.15874957 15.57421875 28.14648438 C10.04926764 28.11360482 4.52467898 28.06355009 -1 28 C-1.02898097 23.89584811 -1.0467922 19.79172247 -1.0625 15.6875 C-1.07087891 14.52025391 -1.07925781 13.35300781 -1.08789062 12.15039062 C-1.09111328 11.03212891 -1.09433594 9.91386719 -1.09765625 8.76171875 C-1.10289307 7.73006592 -1.10812988 6.69841309 -1.11352539 5.63549805 C-1 3 -1 3 0 0 Z " fill="#FAC2AC" transform="translate(52,99)"/>
<path d="M0 0 C5.97737327 -0.02482932 11.95471611 -0.04292109 17.93212891 -0.05493164 C19.96305871 -0.05994189 21.99398494 -0.06675191 24.02490234 -0.07543945 C26.95411057 -0.08765047 29.88327085 -0.09326153 32.8125 -0.09765625 C33.71178223 -0.10281754 34.61106445 -0.10797882 35.53759766 -0.11329651 C40.78569067 -0.11375728 45.80624001 0.23729846 51 1 C51 1.66 51 2.32 51 3 C51.66 3.33 52.32 3.66 53 4 C50.74052141 4.75315953 49.29578228 5.06523316 46.9465332 4.54711914 C42.81570304 3.78009698 38.73661261 3.76405845 34.54296875 3.68359375 C33.64000565 3.66281265 32.73704254 3.64203156 31.80671692 3.62062073 C28.93371903 3.5554472 26.06063286 3.49639045 23.1875 3.4375 C21.23501706 3.39428414 19.28254292 3.35066888 17.33007812 3.30664062 C12.55347497 3.19979893 7.77678336 3.09844143 3 3 C3 5.64 3 8.28 3 11 C2.01 10.67 1.02 10.34 0 10 C0 6.7 0 3.4 0 0 Z " fill="#DFE1E5" transform="translate(53,36)"/>
<path d="M0 0 C7.90192868 -0.72200364 12.97578672 -0.26245443 19.453125 4.4921875 C19.96359375 4.98976563 20.4740625 5.48734375 21 6 C21 6.66 21 7.32 21 8 C21.57234375 8.2371875 22.1446875 8.474375 22.734375 8.71875 C25.4879292 10.27593238 27.16795634 12.12492797 29.25 14.5 C29.95640625 15.2940625 30.6628125 16.088125 31.390625 16.90625 C33 19 33 19 33 21 C32.34 21 31.68 21 31 21 C31.350625 21.763125 31.70125 22.52625 32.0625 23.3125 C33 26 33 26 32 29 C31.48953125 28.17757812 30.9790625 27.35515625 30.453125 26.5078125 C22.75061306 14.51570493 13.60083269 6.08692561 0 1 C0 0.67 0 0.34 0 0 Z " fill="#E9DCD9" transform="translate(117,18)"/>
<path d="M0 0 C26.4 0 52.8 0 80 0 C80 0.66 80 1.32 80 2 C81.175625 1.9071875 81.175625 1.9071875 82.375 1.8125 C83.674375 1.9053125 83.674375 1.9053125 85 2 C85.99 3.485 85.99 3.485 87 5 C86.11436874 4.78937424 85.22873749 4.57874847 84.31626892 4.36174011 C74.44610961 2.18011728 65.08907929 1.52990522 55.00390625 1.48828125 C53.43349353 1.47138172 51.8630939 1.45322469 50.29270935 1.43388367 C46.21422422 1.38694859 42.1357921 1.35677775 38.05712891 1.33044434 C33.13411103 1.29503214 28.21129689 1.2381852 23.28844452 1.18505096 C15.8589913 1.10720188 8.42979234 1.0560958 1 1 C1.33 19.15 1.66 37.3 2 56 C1.34 56 0.68 56 0 56 C0 37.52 0 19.04 0 0 Z " fill="#F3A88F" transform="translate(30,13)"/>
<path d="M0 0 C6.43791529 -0.09248402 12.87346988 -0.17192397 19.31152344 -0.21972656 C21.49552273 -0.23968058 23.67946973 -0.26685371 25.86328125 -0.30175781 C42.53169991 -0.56124785 57.77640834 -0.69668456 71 11 C71.495 11.99 71.495 11.99 72 13 C68 11 64 9 60 7 C59.67 7.33 59.34 7.66 59 8 C57.33382885 8.04063832 55.66611905 8.042721 54 8 C53.505 5.525 53.505 5.525 53 3 C35.66936058 2.25182831 18.33628012 1.60266654 1 1 C1 8.26 1 15.52 1 23 C0.67 23 0.34 23 0 23 C0 15.41 0 7.82 0 0 Z " fill="#F4C2B0" transform="translate(51,34)"/>
<path d="M0 0 C6.93 0 13.86 0 21 0 C21 6.27 21 12.54 21 19 C20.67 19 20.34 19 20 19 C20 13.06 20 7.12 20 1 C13.73 1 7.46 1 1 1 C1.03958027 7.20792914 1.03958027 7.20792914 1.09008789 13.41577148 C1.09258545 14.18477783 1.09508301 14.95378418 1.09765625 15.74609375 C1.10289307 16.53685303 1.10812988 17.3276123 1.11352539 18.14233398 C1 20 1 20 0 21 C-3.33618231 21.14257189 -6.65975606 21.04228157 -10 21 C-10 25.62 -10 30.24 -10 35 C-6.7 35 -3.4 35 0 35 C0 35.33 0 35.66 0 36 C-3.96 36 -7.92 36 -12 36 C-12 30.39 -12 24.78 -12 19 C-8.04 19 -4.08 19 0 19 C0 12.73 0 6.46 0 0 Z " fill="#010202" transform="translate(448,36)"/>
<path d="M0 0 C-0.33 0.99 -0.66 1.98 -1 3 C-6.95492424 5.44411333 -12.8250199 5.26005508 -19.18359375 5.1953125 C-20.23909927 5.1924826 -21.2946048 5.18965271 -22.38209534 5.18673706 C-25.73401504 5.17559415 -29.08566184 5.15050024 -32.4375 5.125 C-34.71809508 5.1149626 -36.99869438 5.10583808 -39.27929688 5.09765625 C-44.85295678 5.07567412 -50.42645889 5.04225537 -56 5 C-56 4.34 -56 3.68 -56 3 C-55.4267247 2.99191315 -54.8534494 2.98382629 -54.26280212 2.97549438 C-48.27630066 2.88919139 -42.29012054 2.78967754 -36.30395508 2.68261719 C-34.0722393 2.64442117 -31.84046393 2.60955219 -29.60864258 2.578125 C-26.39382686 2.53227071 -23.17941808 2.47430963 -19.96484375 2.4140625 C-18.97290512 2.40251129 -17.98096649 2.39096008 -16.95896912 2.37905884 C-11.17073537 2.25676544 -5.53665363 0 0 0 Z " fill="#DF4711" transform="translate(108,124)"/>
<path d="M0 0 C4.8501181 4.8501181 4.2715009 13.63979047 4.375 20.125 C4.35935407 32.93048292 0.87456996 44.63607778 -5 56 C-6.09658936 52.71023192 -5.79953138 51.28696233 -5 48 C-4.34 48 -3.68 48 -3 48 C-2.86722656 47.30132812 -2.73445312 46.60265625 -2.59765625 45.8828125 C-2.42105469 44.97273438 -2.24445313 44.06265625 -2.0625 43.125 C-1.88847656 42.22007813 -1.71445313 41.31515625 -1.53515625 40.3828125 C-1 38 -1 38 0 36 C1.31980962 23.87730423 1.16535912 12.11141084 0 0 Z " fill="#DF5A29" transform="translate(154,60)"/>
<path d="M0 0 C-8.40098726 7.29465584 -23.00454247 5.27143302 -33.58203125 5.1953125 C-35.13286657 5.19157155 -36.68370429 5.18872971 -38.23454285 5.18673706 C-42.27042435 5.17918559 -46.30615653 5.1596126 -50.34197998 5.1373291 C-54.47861716 5.11668526 -58.61527902 5.10769615 -62.75195312 5.09765625 C-70.83470311 5.07635658 -78.91733286 5.04232642 -87 5 C-87 4.67 -87 4.34 -87 4 C-85.77876183 3.99453156 -85.77876183 3.99453156 -84.53285217 3.98895264 C-76.78248293 3.95076101 -69.03257799 3.89356387 -61.2825098 3.81609726 C-57.30006046 3.7769316 -53.31782202 3.74459448 -49.33520508 3.72900391 C-45.47695216 3.71362984 -41.61928034 3.6788305 -37.7612896 3.63169098 C-36.30448964 3.61708722 -34.84760662 3.60897138 -33.39073372 3.60811615 C-24.34689987 3.59748836 -16.1357499 2.66032129 -7.37870121 0.30398178 C-2.17820907 -1.08910454 -2.17820907 -1.08910454 0 0 Z " fill="#F8DCD6" transform="translate(117,144)"/>
<path d="M0 0 C1.32 0.33 2.64 0.66 4 1 C4.6483289 3.22844214 5.29356369 5.4577846 5.9375 7.6875 C6.29714844 8.92886719 6.65679687 10.17023437 7.02734375 11.44921875 C8.42598057 16.5550857 9.12736428 21.0528054 9.1328125 26.359375 C9.13474609 28.15568359 9.13474609 28.15568359 9.13671875 29.98828125 C9.13285156 31.22964844 9.12898437 32.47101563 9.125 33.75 C9.12886719 35.00683594 9.13273438 36.26367188 9.13671875 37.55859375 C9.13542969 38.75097656 9.13414062 39.94335938 9.1328125 41.171875 C9.13168457 42.2659668 9.13055664 43.36005859 9.12939453 44.48730469 C9 47 9 47 8 48 C7.8453125 49.6396875 7.8453125 49.6396875 7.6875 51.3125 C6.92252722 55.41553579 5.99019938 56.29628679 3 59 C3.28875 57.89785156 3.5775 56.79570313 3.875 55.66015625 C8.81250192 35.90575579 7.88033718 18.91280922 0 0 Z " fill="#FAD3C8" transform="translate(150,48)"/>
<path d="M0 0 C0.33 0 0.66 0 1 0 C1 5.94 1 11.88 1 18 C-1.49820313 18.03867188 -1.49820313 18.03867188 -4.046875 18.078125 C-26.77731161 18.45760022 -26.77731161 18.45760022 -45 31 C-45.66 31.66 -46.32 32.32 -47 33 C-46.47731534 30.23723823 -45.89130413 27.6739124 -45 25 C-43.35767228 24.27544365 -41.68375165 23.62225605 -40 23 C-38.25498 22.03984059 -36.54869264 21.02939933 -34.84375 20 C-30.24149768 17.50386315 -26.64047192 16.75670802 -21.38671875 16.8046875 C-20.13955078 16.81113281 -18.89238281 16.81757812 -17.60742188 16.82421875 C-16.31384766 16.84097656 -15.02027344 16.85773438 -13.6875 16.875 C-12.37458984 16.88402344 -11.06167969 16.89304687 -9.70898438 16.90234375 C-6.47257813 16.92588125 -3.23626581 16.96175129 0 17 C0 11.39 0 5.78 0 0 Z " fill="#FDC8B5" transform="translate(84,52)"/>
<path d="M0 0 C8.54966946 5.86263049 12.03947239 15.11258236 14 25 C14.79964082 33.09611896 14.58642184 41.24073448 12 49 C11.67 49 11.34 49 11 49 C10.875 42.25 10.875 42.25 12 40 C12.07181821 37.28239892 12.09299506 34.59140612 12.0625 31.875 C12.05798828 31.12089844 12.05347656 30.36679688 12.04882812 29.58984375 C12.03703499 27.72652873 12.01909942 25.86325445 12 24 C11.34 24 10.68 24 10 24 C9.66127487 22.58461283 9.32925376 21.16762037 9 19.75 C8.814375 18.96109375 8.62875 18.1721875 8.4375 17.359375 C8 15 8 15 8 11 C7.01 10.67 6.02 10.34 5 10 C4.67 8.35 4.34 6.7 4 5 C3.01 5 2.02 5 1 5 C0.67 3.35 0.34 1.7 0 0 Z " fill="#F8CBB8" transform="translate(123,47)"/>
<path d="M0 0 C0.33 0 0.66 0 1 0 C1.4375 2.125 1.4375 2.125 1 5 C-0.5234375 6.45703125 -0.5234375 6.45703125 -2.4375 7.9375 C-6.06343655 10.75284794 -6.40455949 12.43495606 -7 17 C-8.9375 19.375 -8.9375 19.375 -12 21 C-15.36189589 21.31871184 -18.63467604 21.23524595 -22 21 C-17.3595352 17.25768968 -17.3595352 17.25768968 -14.9453125 15.52734375 C-9.54451278 11.57485537 -5.55017447 7.29199815 -1.53125 1.94140625 C-1.0259375 1.30074219 -0.520625 0.66007812 0 0 Z " fill="#E6E0E2" transform="translate(146,119)"/>
<path d="M0 0 C3 1 3 1 4.16796875 3.203125 C7.70230295 13.76550306 7.40658687 23.97367685 7 35 C6.34 35 5.68 35 5 35 C4.34 37.64 3.68 40.28 3 43 C2.34 42.67 1.68 42.34 1 42 C1.2165625 41.3915625 1.433125 40.783125 1.65625 40.15625 C5.54171659 27.92422555 5.16875329 16.49310818 0.875 4.4765625 C0 2 0 2 0 0 Z " fill="#DC4A17" transform="translate(132,57)"/>
<path d="M0 0 C9.24 0 18.48 0 28 0 C28 0.33 28 0.66 28 1 C19.09 1 10.18 1 1 1 C1 4.3 1 7.6 1 11 C1.99 11.33 2.98 11.66 4 12 C3.88601335 13.62580966 3.75844341 15.25067157 3.625 16.875 C3.55539063 17.77992187 3.48578125 18.68484375 3.4140625 19.6171875 C3 22 3 22 1 24 C-1.65537372 24.56520003 -4.29144713 24.73788198 -7 25 C-3.375 22 -3.375 22 0 22 C0 14.74 0 7.48 0 0 Z " fill="#F1DCD3" transform="translate(52,35)"/>
<path d="M0 0 C-1.125 1.9375 -1.125 1.9375 -3 4 C-6.1875 4.75 -6.1875 4.75 -9 5 C-9 5.66 -9 6.32 -9 7 C-13.46236469 8.80619523 -16.31034294 9.11658501 -21 8 C-20.401875 7.566875 -19.80375 7.13375 -19.1875 6.6875 C-17.03157663 5.12272711 -17.03157663 5.12272711 -15.5625 3.4375 C-11.47522332 -0.32279454 -5.19557831 -1.73185944 0 0 Z " fill="#E6DBD9" transform="translate(131,140)"/>
<path d="M0 0 C17.49 0 34.98 0 53 0 C53 0.66 53 1.32 53 2 C56.63 2.66 60.26 3.32 64 4 C64 4.66 64 5.32 64 6 C64.66 6 65.32 6 66 6 C66 6.66 66 7.32 66 8 C65.29439941 7.71286133 64.58879883 7.42572266 63.86181641 7.12988281 C50.04185328 1.67357934 37.3264361 1.34531993 22.625 1.25 C20.42445623 1.2217879 18.22393383 1.19185333 16.0234375 1.16015625 C10.6823756 1.08691996 5.34144282 1.03491454 0 1 C0 0.67 0 0.34 0 0 Z " fill="#D84613" transform="translate(51,33)"/>
<path d="M0 0 C0.98613281 0.00322266 1.97226563 0.00644531 2.98828125 0.00976562 C4.02082031 0.01814453 5.05335937 0.02652344 6.1171875 0.03515625 C7.67759766 0.04192383 7.67759766 0.04192383 9.26953125 0.04882812 C11.84377437 0.06063658 14.41798803 0.0785724 16.9921875 0.09765625 C16.9921875 5.70765625 16.9921875 11.31765625 16.9921875 17.09765625 C16.6621875 17.09765625 16.3321875 17.09765625 15.9921875 17.09765625 C15.9921875 11.81765625 15.9921875 6.53765625 15.9921875 1.09765625 C9.3921875 1.09765625 2.7921875 1.09765625 -4.0078125 1.09765625 C-4.6678125 2.74765625 -5.3278125 4.39765625 -6.0078125 6.09765625 C-11.19700169 10.09765625 -11.19700169 10.09765625 -14.0078125 10.09765625 C-13.7494241 6.60941284 -12.74314514 5.85551378 -10.0703125 3.41015625 C-6.21705286 0.50055203 -4.71597557 -0.02710331 0 0 Z " fill="#ECE0DE" transform="translate(67.0078125,91.90234375)"/>
<path d="M0 0 C1.32 0.33 2.64 0.66 4 1 C4 1.66 4 2.32 4 3 C4.54140625 3.23460937 5.0828125 3.46921875 5.640625 3.7109375 C8.65591544 5.3583644 11.11184012 7.42653344 13.75 9.625 C14.73484375 10.44226563 15.7196875 11.25953125 16.734375 12.1015625 C17.48203125 12.72804688 18.2296875 13.35453125 19 14 C18.34 14.66 17.68 15.32 17 16 C14.875 15.625 14.875 15.625 13 15 C12.67 13.68 12.34 12.36 12 11 C11.319375 10.979375 10.63875 10.95875 9.9375 10.9375 C5.61113032 9.55674372 2.72407776 6.59546863 0 3 C0 2.01 0 1.02 0 0 Z " fill="#E3E2E6" transform="translate(105,60)"/>
<path d="M0 0 C2.0625 0.4375 2.0625 0.4375 4 1 C3.34 1.66 2.68 2.32 2 3 C1.67 3.825 1.34 4.65 1 5.5 C0 8 0 8 -2 10 C-3.65391846 10.39171753 -5.32345271 10.72057545 -7 11 C-7.639375 11.185625 -8.27875 11.37125 -8.9375 11.5625 C-11.64666665 12.13717171 -14.23972841 12.06273345 -17 12 C-16.13761719 11.58621094 -16.13761719 11.58621094 -15.2578125 11.1640625 C-12.30751757 9.64297619 -9.58192838 7.83650419 -6.8046875 6.0234375 C-5 5 -5 5 -3 5 C-2.690625 4.360625 -2.38125 3.72125 -2.0625 3.0625 C-1 1 -1 1 0 0 Z " fill="#E4E0DC" transform="translate(123,107)"/>
<path d="M0 0 C0.99 0.66 1.98 1.32 3 2 C1.37331769 5.6930085 -0.91312407 8.61629195 -3.4375 11.75 C-4.21996094 12.73484375 -5.00242188 13.7196875 -5.80859375 14.734375 C-6.53175781 15.48203125 -7.25492188 16.2296875 -8 17 C-8.99 17 -9.98 17 -11 17 C-9.94232794 13.29814778 -8.98945412 11.99139112 -5.9375 9.5 C-2.81713175 7.29569568 -2.81713175 7.29569568 -2.125 4.1875 C-2.08375 3.465625 -2.0425 2.74375 -2 2 C-1.34 2 -0.68 2 0 2 C0 1.34 0 0.68 0 0 Z " fill="#DFE2E2" transform="translate(149,117)"/>
<path d="M0 0 C-6.80932819 7.22201474 -14.54131107 7.71162534 -24 8 C-24 7.67 -24 7.34 -24 7 C-19.545 6.505 -19.545 6.505 -15 6 C-15.33 5.01 -15.66 4.02 -16 3 C-13.66836622 2.32741333 -11.3347961 1.66152556 -9 1 C-8.29875 0.79375 -7.5975 0.5875 -6.875 0.375 C-4.55665842 -0.08866832 -2.35759439 -0.06548873 0 0 Z " fill="#EDDBD2" transform="translate(120,117)"/>
<path d="M0 0 C10.32567239 1.62811432 18.68297494 4.1450915 28 9 C27.01 9.33 26.02 9.66 25 10 C24.38125 9.67 23.7625 9.34 23.125 9 C20.34520442 7.6918609 18.93012838 8.2674679 16 9 C14.68 9 13.36 9 12 9 C12.66 8.67 13.32 8.34 14 8 C14 7.34 14 6.68 14 6 C13.01 5.67 12.02 5.34 11 5 C11 4.34 11 3.68 11 3 C10.37351562 3.01160156 9.74703125 3.02320313 9.1015625 3.03515625 C8.28429687 3.04417969 7.46703125 3.05320312 6.625 3.0625 C5.81289062 3.07410156 5.00078125 3.08570313 4.1640625 3.09765625 C2 3 2 3 0 2 C0 1.34 0 0.68 0 0 Z " fill="#E14E18" transform="translate(100,14)"/>
<path d="M0 0 C4.3312947 1.27391021 6.56723049 3.36841349 9.47265625 6.66015625 C11.27467564 8.24095587 12.70021255 8.4594314 15 9 C16.25 11.0625 16.25 11.0625 17 13 C18.65 13 20.3 13 22 13 C21.75 16.375 21.75 16.375 21 20 C18.9375 21.4375 18.9375 21.4375 17 22 C17.31453125 21.32195312 17.6290625 20.64390625 17.953125 19.9453125 C18.30280727 17.03968511 18.30280727 17.03968511 16.72460938 15.32324219 C14.7926188 13.42788198 12.79990908 11.642163 10.75 9.875 C9.36975086 8.64327489 7.98954112 7.41150563 6.609375 6.1796875 C5.99030273 5.64069824 5.37123047 5.10170898 4.73339844 4.54638672 C3.09389896 3.08376845 1.53694165 1.56932931 0 0 Z " fill="#F6D1C1" transform="translate(102,62)"/>
<path d="M0 0 C0.66 0.33 1.32 0.66 2 1 C2.3125 4.1875 2.3125 4.1875 2 8 C-0.45094228 10.98087575 -2.79527998 12.86351998 -6 15 C-6.66 14.01 -7.32 13.02 -8 12 C-7.236875 11.319375 -6.47375 10.63875 -5.6875 9.9375 C-2.67156669 6.64101475 -1.54120983 4.13693165 0 0 Z " fill="#E3E3EA" transform="translate(124,76)"/>
<path d="M0 0 C0.66 0.33 1.32 0.66 2 1 C1.67854004 1.70664795 1.35708008 2.4132959 1.02587891 3.14135742 C-0.0594592 6.16568485 -0.31133474 8.53659945 -0.4140625 11.73828125 C-0.45273437 12.80498047 -0.49140625 13.87167969 -0.53125 14.97070312 C-0.5621875 16.07349609 -0.593125 17.17628906 -0.625 18.3125 C-0.66367187 19.43462891 -0.70234375 20.55675781 -0.7421875 21.71289062 C-0.83622011 24.47509852 -0.92187341 27.237304 -1 30 C-3.71416161 25.29900997 -3.33056722 20.8634232 -3.3125 15.5625 C-3.32861328 14.62083984 -3.34472656 13.67917969 -3.36132812 12.70898438 C-3.36489305 7.65748345 -3.30524918 4.1075788 0 0 Z " fill="#DA4913" transform="translate(52,96)"/>
<path d="M0 0 C1.9375 0.25 1.9375 0.25 4 1 C4.66 1.99 5.32 2.98 6 4 C4.68 4.33 3.36 4.66 2 5 C1.67 9.95 1.34 14.9 1 20 C0.34 20 -0.32 20 -1 20 C-1.02888514 16.85418577 -1.04675923 13.70840531 -1.0625 10.5625 C-1.07087891 9.66466797 -1.07925781 8.76683594 -1.08789062 7.84179688 C-1.09111328 6.98779297 -1.09433594 6.13378906 -1.09765625 5.25390625 C-1.10551147 4.06776733 -1.10551147 4.06776733 -1.11352539 2.85766602 C-1 1 -1 1 0 0 Z " fill="#DA4513" transform="translate(86,50)"/>
<path d="M0 0 C1.65 0 3.3 0 5 0 C2.1604084 3.91457985 -0.62527172 6.30820069 -4.75 8.8125 C-5.73484375 9.41707031 -6.7196875 10.02164063 -7.734375 10.64453125 C-8.48203125 11.09183594 -9.2296875 11.53914062 -10 12 C-10.33 11.34 -10.66 10.68 -11 10 C-10.67 9.34 -10.34 8.68 -10 8 C-8.68 8 -7.36 8 -6 8 C-6 6.35 -6 4.7 -6 3 C-5.195625 2.87625 -4.39125 2.7525 -3.5625 2.625 C-2.716875 2.41875 -1.87125 2.2125 -1 2 C-0.67 1.34 -0.34 0.68 0 0 Z " fill="#E3521B" transform="translate(134,128)"/>
<path d="M0 0 C0.66 0.33 1.32 0.66 2 1 C3.70702735 1.06996014 5.41668003 1.08440154 7.125 1.0625 C8.03507812 1.05347656 8.94515625 1.04445312 9.8828125 1.03515625 C10.93082031 1.01775391 10.93082031 1.01775391 12 1 C2.85386819 8 2.85386819 8 -3 8 C-3 6.68 -3 5.36 -3 4 C-2.34 4 -1.68 4 -1 4 C-0.67 2.68 -0.34 1.36 0 0 Z " fill="#EB4B11" transform="translate(35,57)"/>
<path d="M0 0 C0 3 0 3 -2.046875 5.0859375 C-2.93890625 5.84132813 -3.8309375 6.59671875 -4.75 7.375 C-8.27236989 10.37210421 -11.12481405 13.38804764 -14 17 C-15.95851344 18.39355764 -17.95127113 19.74282547 -20 21 C-20.66 20.67 -21.32 20.34 -22 20 C-16.80576277 14.53786515 -11.31230061 9.67764435 -5.41796875 4.98046875 C-3.48505461 3.39729029 -1.71731101 1.80859665 0 0 Z " fill="#F8D1BE" transform="translate(118,84)"/>
<path d="M0 0 C0 5.94 0 11.88 0 18 C-3.3 18 -6.6 18 -10 18 C-10 17.67 -10 17.34 -10 17 C-8.02 17 -6.04 17 -4 17 C-2.9458482 13.83754459 -2.68724328 11.13051782 -2.4375 7.8125 C-2.35371094 6.72582031 -2.26992188 5.63914062 -2.18359375 4.51953125 C-2.12300781 3.68808594 -2.06242187 2.85664062 -2 2 C-2.66 1.67 -3.32 1.34 -4 1 C-2 0 -2 0 0 0 Z " fill="#2A2C2C" transform="translate(487,116)"/>
<path d="M0 0 C0.66 0.33 1.32 0.66 2 1 C0.80100302 4.0831351 -0.47700477 7.06279492 -2 10 C-4.92879371 9.37240135 -7.36095629 8.41377341 -10 7 C-9.67 6.01 -9.34 5.02 -9 4 C-8.443125 4.268125 -7.88625 4.53625 -7.3125 4.8125 C-6.1678125 4.9053125 -6.1678125 4.9053125 -5 5 C-2.22877725 2.64573501 -2.22877725 2.64573501 0 0 Z " fill="#E6DBD9" transform="translate(94,105)"/>
<path d="M0 0 C2.375 0.25 2.375 0.25 5 1 C6.375 2.875 6.375 2.875 7 5 C6.67 5.99 6.34 6.98 6 8 C5.5875 7.484375 5.175 6.96875 4.75 6.4375 C4.1725 5.963125 3.595 5.48875 3 5 C1.68 5.33 0.36 5.66 -1 6 C-1.33 11.61 -1.66 17.22 -2 23 C-2.33 23 -2.66 23 -3 23 C-3 16.73 -3 10.46 -3 4 C-1.68 3.34 -0.36 2.68 1 2 C0.67 1.34 0.34 0.68 0 0 Z " fill="#F8D7CC" transform="translate(86,46)"/>
<path d="M0 0 C0.33 0.66 0.66 1.32 1 2 C7.6 2 14.2 2 21 2 C21 2.66 21 3.32 21 4 C13.74 4 6.48 4 -1 4 C-0.67 2.68 -0.34 1.36 0 0 Z " fill="#232425" transform="translate(406,130)"/>
<path d="M0 0 C3.96 0 7.92 0 12 0 C12.33 0.66 12.66 1.32 13 2 C12.34 2 11.68 2 11 2 C11 2.66 11 3.32 11 4 C11.598125 4.0825 12.19625 4.165 12.8125 4.25 C15.5966296 5.20455872 16.43311142 6.57132271 18 9 C14.3899462 9 13.14029615 8.04049208 10.125 6.125 C6.82341867 4.03500815 3.66946236 2.35467607 0 1 C0 0.67 0 0.34 0 0 Z " fill="#F1D2CA" transform="translate(117,18)"/>
<path d="M0 0 C1 2 1 2 0.4375 4.25 C-1.38011092 7.72716871 -3.64872681 10.86737161 -7 13 C-9.1953125 12.6640625 -9.1953125 12.6640625 -11 12 C-10.37351562 11.38511719 -9.74703125 10.77023438 -9.1015625 10.13671875 C-8.28429687 9.32847656 -7.46703125 8.52023438 -6.625 7.6875 C-5.40683594 6.48673828 -5.40683594 6.48673828 -4.1640625 5.26171875 C-1.87395158 2.99990063 -1.87395158 2.99990063 0 0 Z " fill="#DF4F1D" transform="translate(130,106)"/>
<path d="M0 0 C3.91841827 1.30613942 6.32640809 2.83129848 9 6 C9 6.66 9 7.32 9 8 C9.66 8.33 10.32 8.66 11 9 C8.73526291 9.80883467 7.3071526 10.06515358 4.9375 9.5625 C1.87998677 7.09676353 1.12750584 3.67293568 0 0 Z " fill="#E2E3E7" transform="translate(90,46)"/>
<path d="M0 0 C5.34345119 1.83204041 9.14275142 4.93973834 13 9 C13.33 8.34 13.66 7.68 14 7 C14.33 9.97 14.66 12.94 15 16 C11.67958602 12.81240258 8.69646062 9.37914601 5.68359375 5.90625 C3.86837262 3.85096483 1.97810186 1.89897779 0 0 Z " fill="#DA5324" transform="translate(117,41)"/>
<path d="M0 0 C3.88014936 1.52059907 5.73906562 3.86078531 8.25 7.125 C8.95640625 8.03507812 9.6628125 8.94515625 10.390625 9.8828125 C11.18726563 10.93082031 11.18726563 10.93082031 12 12 C11.67 12.66 11.34 13.32 11 14 C10.7525 13.360625 10.505 12.72125 10.25 12.0625 C9.21173571 9.82450832 9.21173571 9.82450832 7.0625 9.4375 C6.0415625 9.2209375 6.0415625 9.2209375 5 9 C3.25 7.6875 3.25 7.6875 2 6 C2 4.68 2 3.36 2 2 C1.34 2 0.68 2 0 2 C0 1.34 0 0.68 0 0 Z " fill="#DC4D17" transform="translate(135,30)"/>
<path d="M0 0 C-2.24732102 0.84124316 -4.49738785 1.67314832 -6.75 2.5 C-7.38421875 2.73847656 -8.0184375 2.97695312 -8.671875 3.22265625 C-12.03286607 4.44801758 -14.36871587 5 -18 5 C-17.67 4.01 -17.34 3.02 -17 2 C-14.36 1.67 -11.72 1.34 -9 1 C-9 0.67 -9 0.34 -9 0 C-3.375 -1.125 -3.375 -1.125 0 0 Z " fill="#DC4E1A" transform="translate(122,141)"/>
<path d="M0 0 C-0.99 0.99 -1.98 1.98 -3 3 C-3 2.34 -3 1.68 -3 1 C-10.92 1 -18.84 1 -27 1 C-27 0.67 -27 0.34 -27 0 C-23.06290089 -0.19665429 -19.12531328 -0.38075477 -15.1875 -0.5625 C-14.06794922 -0.61857422 -12.94839844 -0.67464844 -11.79492188 -0.73242188 C-10.72177734 -0.78076172 -9.64863281 -0.82910156 -8.54296875 -0.87890625 C-7.0583313 -0.94960327 -7.0583313 -0.94960327 -5.54370117 -1.02172852 C-3 -1 -3 -1 0 0 Z " fill="#020202" transform="translate(240,114)"/>
<path d="M0 0 C0.33 0 0.66 0 1 0 C1 3.63 1 7.26 1 11 C-0.65 11.33 -2.3 11.66 -4 12 C-4 11.01 -4 10.02 -4 9 C-3.01 8.34 -2.02 7.68 -1 7 C-0.83329727 3.95826106 -0.83329727 3.95826106 -1 1 C-0.67 0.67 -0.34 0.34 0 0 Z " fill="#DBE4EA" transform="translate(55,50)"/>
<path d="M0 0 C0.99 0.66 1.98 1.32 3 2 C0.69 5.3 -1.62 8.6 -4 12 C-4.66 11.67 -5.32 11.34 -6 11 C-6 10.34 -6 9.68 -6 9 C-5.34 9 -4.68 9 -4 9 C-4 8.01 -4 7.02 -4 6 C-3.01 6 -2.02 6 -1 6 C-1.020625 5.195625 -1.04125 4.39125 -1.0625 3.5625 C-1 1 -1 1 0 0 Z " fill="#E14F1B" transform="translate(145,115)"/>
<path d="M0 0 C-1.48459406 2.30112079 -2.49133846 3.7615649 -5 4.9375 C-7 5 -7 5 -8.75 3.5625 C-9.1625 3.046875 -9.575 2.53125 -10 2 C-9.01 2 -8.02 2 -7 2 C-7 1.34 -7 0.68 -7 0 C-3.98968256 -0.93423645 -3.13349732 -1.04449911 0 0 Z " fill="#E3E3E5" transform="translate(131,140)"/>
<path d="M0 0 C4.34361288 1.18462169 7.28300842 2.30489146 10 6 C9.75 8.25 9.75 8.25 9 10 C7.62437146 8.71034824 6.29233607 7.37310707 5 6 C5 5.34 5 4.68 5 4 C4.360625 3.71125 3.72125 3.4225 3.0625 3.125 C1 2 1 2 0 0 Z " fill="#DFE1E2" transform="translate(373,35)"/>
<path d="M0 0 C0.33 0 0.66 0 1 0 C1.25 2.26171875 1.25 2.26171875 1 5 C-0.75 7.01953125 -0.75 7.01953125 -3 8.8125 C-3.7425 9.41707031 -4.485 10.02164063 -5.25 10.64453125 C-5.8275 11.09183594 -6.405 11.53914062 -7 12 C-7.66 11.67 -8.32 11.34 -9 11 C-8.51789063 10.45730469 -8.03578125 9.91460937 -7.5390625 9.35546875 C-6.90742188 8.64003906 -6.27578125 7.92460938 -5.625 7.1875 C-4.68527344 6.12595703 -4.68527344 6.12595703 -3.7265625 5.04296875 C-1.859401 2.91196181 -1.859401 2.91196181 0 0 Z " fill="#F5D2C5" transform="translate(146,119)"/>
<path d="M0 0 C-1.17578125 1.984375 -1.17578125 1.984375 -3 4 C-5.48046875 4.390625 -5.48046875 4.390625 -8.1875 4.25 C-9.53908203 4.19585937 -9.53908203 4.19585937 -10.91796875 4.140625 C-11.60503906 4.09421875 -12.29210937 4.0478125 -13 4 C-12.40316406 3.70480469 -11.80632812 3.40960938 -11.19140625 3.10546875 C-9.42058404 2.21216628 -7.67462105 1.26968915 -5.9375 0.3125 C-3 -1 -3 -1 0 0 Z " fill="#E3E4E9" transform="translate(119,115)"/>
<path d="M0 0 C0.33 0 0.66 0 1 0 C1 2.64 1 5.28 1 8 C-0.98 8.99 -0.98 8.99 -3 10 C-3 10.66 -3 11.32 -3 12 C-3.66 12 -4.32 12 -5 12 C-3.41037341 7.96479403 -1.71767682 3.98188718 0 0 Z " fill="#F4CFBF" transform="translate(152,107)"/>
<path d="M0 0 C2.31 0.66 4.62 1.32 7 2 C6.38125 2.0825 5.7625 2.165 5.125 2.25 C2.81562433 2.81258459 2.81562433 2.81258459 1.75 5.0625 C1.5025 5.701875 1.255 6.34125 1 7 C0.34 6.34 -0.32 5.68 -1 5 C-0.625 2.375 -0.625 2.375 0 0 Z " fill="#171719" transform="translate(466,113)"/>
<path d="M0 0 C0 0.66 0 1.32 0 2 C-0.66 2 -1.32 2 -2 2 C-1.649375 2.763125 -1.29875 3.52625 -0.9375 4.3125 C0 7 0 7 -1 10 C-2.65 7.03 -4.3 4.06 -6 1 C-3 0 -3 0 0 0 Z " fill="#F1D2C7" transform="translate(150,37)"/>
<path d="M0 0 C-3.38583802 3.13107836 -5.71109462 3.33550778 -10.25 3.1875 C-11.86648437 3.14689453 -11.86648437 3.14689453 -13.515625 3.10546875 C-14.74539062 3.05326172 -14.74539062 3.05326172 -16 3 C-16 2.67 -16 2.34 -16 2 C-13.71022755 1.47090114 -11.41810812 0.95194981 -9.125 0.4375 C-7.84882812 0.14746094 -6.57265625 -0.14257812 -5.2578125 -0.44140625 C-2 -1 -2 -1 0 0 Z " fill="#F5C6B1" transform="translate(117,144)"/>
<path d="M0 0 C0 3.58912412 -0.66436554 4.10857029 -3 6.6875 C-3.556875 7.31011719 -4.11375 7.93273437 -4.6875 8.57421875 C-5.120625 9.04472656 -5.55375 9.51523438 -6 10 C-7 7 -7 7 -6.375 4.4375 C-4.66822278 1.41184947 -3.26941682 0.94641013 0 0 Z " fill="#F4D3C1" transform="translate(44,75)"/>
<path d="M0 0 C4.7517398 0.43197635 6.92000054 1.32769295 10 5 C8.02 5 6.04 5 4 5 C3.67 4.34 3.34 3.68 3 3 C2.01 2.67 1.02 2.34 0 2 C0 1.34 0 0.68 0 0 Z " fill="#E1E3E5" transform="translate(128,20)"/>
<path d="M0 0 C0 3.10551666 -0.5393715 4.35261084 -2 7 C-4.31 7 -6.62 7 -9 7 C-6.03716687 4.61327331 -3.05729491 2.2646629 0 0 Z " fill="#F5D3C9" transform="translate(133,133)"/>
<path d="M0 0 C4.02992782 0.55312735 8.02022924 1.1558062 12 2 C12 2.66 12 3.32 12 4 C12.66 4 13.32 4 14 4 C14 4.66 14 5.32 14 6 C13.360625 5.731875 12.72125 5.46375 12.0625 5.1875 C8.08797739 3.64635858 4.05115505 2.32390688 0 1 C0 0.67 0 0.34 0 0 Z " fill="#DC5421" transform="translate(103,35)"/>
<path d="M0 0 C1.65 0 3.3 0 5 0 C5 0.66 5 1.32 5 2 C5.78375 1.938125 6.5675 1.87625 7.375 1.8125 C8.674375 1.9053125 8.674375 1.9053125 10 2 C10.99 3.485 10.99 3.485 12 5 C10.37247769 4.74476126 8.74796804 4.47025506 7.125 4.1875 C6.22007813 4.03667969 5.31515625 3.88585937 4.3828125 3.73046875 C2 3 2 3 0 0 Z " fill="#F5CFC1" transform="translate(105,13)"/>
<path d="M0 0 C0.66 0.66 1.32 1.32 2 2 C1.030625 2.61875 0.06125 3.2375 -0.9375 3.875 C-4.02835362 5.65678846 -4.02835362 5.65678846 -5 8 C-6.32 7.34 -7.64 6.68 -9 6 C-6.03 4.02 -3.06 2.04 0 0 Z " fill="#E7E9EB" transform="translate(376,123)"/>
<path d="M0 0 C0.33 0.66 0.66 1.32 1 2 C-0.07229283 5.13439441 -1.47657021 8.06195683 -3 11 C-3.66 11 -4.32 11 -5 11 C-3.92289822 6.69159287 -2.96052484 3.36423277 0 0 Z " fill="#DCDFDF" transform="translate(322,55)"/>
<path d="M0 0 C0.33 0 0.66 0 1 0 C1.10884119 1.41493551 1.18597617 2.83232943 1.25 4.25 C1.29640625 5.03890625 1.3428125 5.8278125 1.390625 6.640625 C1 9 1 9 -3 13 C-2.01 8.71 -1.02 4.42 0 0 Z " fill="#F9C9B6" transform="translate(156,94)"/>
<path d="M0 0 C3.37462715 0.54723683 5.08235 1.0549 8 3 C7.67 3.66 7.34 4.32 7 5 C4.625 4.75 4.625 4.75 2 4 C0.6875 1.9375 0.6875 1.9375 0 0 Z " fill="#E0DFDE" transform="translate(115,44)"/>
<path d="M0 0 C1.875 0.3125 1.875 0.3125 4 1 C4.66 1.99 5.32 2.98 6 4 C4.35 3.67 2.7 3.34 1 3 C0.67 2.01 0.34 1.02 0 0 Z M-2 2 C-1.01 2.33 -0.02 2.66 1 3 C0.67 3.66 0.34 4.32 0 5 C-0.66 5 -1.32 5 -2 5 C-2 4.01 -2 3.02 -2 2 Z " fill="#E8ECED" transform="translate(403,41)"/>
<path d="M0 0 C0.66 0 1.32 0 2 0 C1.54917531 1.46067199 1.08906463 2.91848032 0.625 4.375 C0.36976563 5.18710938 0.11453125 5.99921875 -0.1484375 6.8359375 C-1 9 -1 9 -3 11 C-2.67 8.36 -2.34 5.72 -2 3 C-1.34 3 -0.68 3 0 3 C0 2.01 0 1.02 0 0 Z " fill="#D84F1C" transform="translate(151,105)"/>
<path d="M0 0 C2.375 0.25 2.375 0.25 5 1 C6.375 2.875 6.375 2.875 7 5 C6.67 5.99 6.34 6.98 6 8 C5.731875 7.38125 5.46375 6.7625 5.1875 6.125 C4.04443152 3.7004767 4.04443152 3.7004767 1 2 C0.67 1.34 0.34 0.68 0 0 Z " fill="#E8D9D6" transform="translate(86,46)"/>
<path d="M0 0 C2.25 -0.3125 2.25 -0.3125 5 0 C7.3125 2.5 7.3125 2.5 9 5 C4.98525763 5 3.18024863 3.33218233 0 1 C0 0.67 0 0.34 0 0 Z " fill="#F6CEC1" transform="translate(126,22)"/>
<path d="M0 0 C1.67542976 0.28604898 3.34385343 0.61781233 5 1 C3.35 2.65 1.7 4.3 0 6 C-0.38218767 4.34385343 -0.71395102 2.67542976 -1 1 C-0.67 0.67 -0.34 0.34 0 0 Z " fill="#E75520" transform="translate(113,83)"/>
<path d="M0 0 C1.32 1.32 2.64 2.64 4 4 C2.35 4.66 0.7 5.32 -1 6 C-1.042721 4.33388095 -1.04063832 2.66617115 -1 1 C-0.67 0.67 -0.34 0.34 0 0 Z " fill="#EAEDEF" transform="translate(451,126)"/>
<path d="M0 0 C0.66 0.33 1.32 0.66 2 1 C1.3125 2.9375 1.3125 2.9375 0 5 C-2.625 5.75 -2.625 5.75 -5 6 C-3.35 4.02 -1.7 2.04 0 0 Z " fill="#F7CDBD" transform="translate(94,105)"/>
<path d="M0 0 C1.4540625 0.0309375 1.4540625 0.0309375 2.9375 0.0625 C1.2875 1.7125 -0.3625 3.3625 -2.0625 5.0625 C-2.7225 3.7425 -3.3825 2.4225 -4.0625 1.0625 C-3.0625 0.0625 -3.0625 0.0625 0 0 Z " fill="#DE4E16" transform="translate(57.0625,90.9375)"/>
<path d="M0 0 C1.32 0.33 2.64 0.66 4 1 C4.33 2.98 4.66 4.96 5 7 C2.47411298 4.63707344 1.11179163 3.33537489 0 0 Z " fill="#F2D4CB" transform="translate(150,48)"/>
<path d="M0 0 C3.36720387 1.39332574 4.9859524 2.9789286 7 6 C5.35 6 3.7 6 2 6 C2 4.68 2 3.36 2 2 C1.34 2 0.68 2 0 2 C0 1.34 0 0.68 0 0 Z " fill="#DB5B29" transform="translate(135,30)"/>
</svg>
